<svg width="7867" height="5474" viewBox="0 0 7867 5474" fill="none" xmlns="http://www.w3.org/2000/svg">
<path d="M1567.45 5474C2433.12 5474 3134.9 5420.7 3134.9 5354.94C3134.9 5289.19 2433.12 5235.88 1567.45 5235.88C701.77 5235.88 0 5289.19 0 5354.94C0 5420.7 701.77 5474 1567.45 5474Z" fill="#E6E6E6"/>
<path d="M1198.13 1214.58C1470.91 1098.55 1810.67 1172.06 2142.47 1223.09C2145.56 1161.3 2182.99 1086.09 2143.78 1042.99C2096.15 990.612 2100.54 935.582 2129.2 880.235C2202.49 738.705 2097.49 588.109 1991.46 462.891C1967.56 434.731 1937.36 412.605 1903.31 398.311C1869.26 384.016 1832.31 377.957 1795.48 380.624L1599.07 394.654C1551.28 398.068 1505.67 415.998 1468.35 446.044C1431.02 476.091 1403.76 516.821 1390.22 562.785C1343.32 626.572 1318.22 690.182 1334.02 753.462C1263.78 801.47 1251.98 859.421 1283.54 924.75C1310.31 965.884 1310.02 1005.92 1282.32 1044.86C1245.95 1094.49 1218.09 1149.84 1199.88 1208.62L1198.13 1214.58Z" fill="#2F2E41"/>
<path d="M7680.58 4732.18H2120.93C2071.49 4732.18 2024.07 4712.54 1989.11 4677.57C1954.15 4642.61 1934.51 4595.19 1934.51 4545.74C3949.88 4311.5 5927.38 4311.5 7867 4545.74C7867 4595.19 7847.36 4642.61 7812.4 4677.57C7777.44 4712.54 7730.02 4732.18 7680.58 4732.18Z" fill="#2F2E41"/>
<path d="M7867 4556.72L1934.51 4545.75L2622.06 3388.75L2625.35 3383.27V833.369C2625.35 802.419 2631.44 771.771 2643.29 743.177C2655.13 714.582 2672.49 688.6 2694.37 666.715C2716.25 644.83 2742.23 627.47 2770.82 615.627C2799.42 603.784 2830.06 597.69 2861.01 597.692H6907.6C6938.55 597.69 6969.2 603.784 6997.79 615.627C7026.38 627.47 7052.36 644.83 7074.24 666.715C7096.12 688.6 7113.48 714.582 7125.32 743.177C7137.17 771.771 7143.26 802.419 7143.26 833.369V3400.81L7867 4556.72Z" fill="#3F3D56"/>
<path d="M2855.63 762.191C2835.28 762.214 2815.77 770.31 2801.38 784.701C2786.99 799.093 2778.9 818.606 2778.87 838.959V3163.93C2778.9 3184.28 2786.99 3203.79 2801.38 3218.18C2815.77 3232.57 2835.28 3240.67 2855.63 3240.69H6945.87C6966.22 3240.67 6985.73 3232.57 7000.12 3218.18C7014.51 3203.79 7022.61 3184.28 7022.64 3163.93V838.959C7022.61 818.606 7014.52 799.094 7000.13 784.702C6985.74 770.311 6966.22 762.215 6945.87 762.191H2855.63Z" fill="white"/>
<path d="M2872.77 3547.77C2866.49 3547.78 2860.33 3549.59 2855.04 3552.98C2849.74 3556.37 2845.52 3561.21 2842.89 3566.92L2631.03 4027.52C2628.72 4032.54 2627.71 4038.05 2628.1 4043.55C2628.48 4049.06 2630.24 4054.38 2633.21 4059.02C2636.19 4063.67 2640.29 4067.49 2645.13 4070.14C2649.97 4072.79 2655.39 4074.17 2660.91 4074.17H7116.15C7121.76 4074.17 7127.28 4072.74 7132.17 4070.01C7137.07 4067.28 7141.19 4063.34 7144.14 4058.57C7147.08 4053.8 7148.76 4048.35 7149.01 4042.75C7149.27 4037.15 7148.08 4031.57 7145.57 4026.56L6915.29 3565.95C6912.57 3560.48 6908.38 3555.87 6903.18 3552.66C6897.98 3549.44 6891.98 3547.75 6885.87 3547.77H2872.77Z" fill="#2F2E41"/>
<path d="M4884.31 723.814C4911.56 723.814 4933.65 701.719 4933.65 674.463C4933.65 647.207 4911.56 625.112 4884.31 625.112C4857.05 625.112 4834.96 647.207 4834.96 674.463C4834.96 701.719 4857.05 723.814 4884.31 723.814Z" fill="white"/>
<path d="M4446.39 4161.91C4439.16 4161.92 4432.13 4164.31 4426.39 4168.71C4420.65 4173.11 4416.52 4179.27 4414.63 4186.25L4361.49 4383.66C4360.17 4388.53 4360 4393.65 4360.98 4398.6C4361.96 4403.56 4364.07 4408.22 4367.14 4412.23C4370.21 4416.23 4374.16 4419.48 4378.69 4421.72C4383.22 4423.95 4388.2 4425.11 4393.25 4425.11H5403.9C5409.14 4425.11 5414.31 4423.86 5418.97 4421.46C5423.63 4419.05 5427.65 4415.57 5430.69 4411.3C5433.73 4407.02 5435.71 4402.09 5436.45 4396.89C5437.2 4391.7 5436.69 4386.41 5434.97 4381.45L5366.65 4184.05C5364.41 4177.59 5360.21 4171.98 5354.64 4168.01C5349.07 4164.05 5342.4 4161.91 5335.56 4161.91H4446.39Z" fill="#2F2E41"/>
<path d="M7143.26 3344.88V3388.74H2622.06L2625.47 3383.27V3344.88H7143.26Z" fill="#2F2E41"/>
<path d="M7017.15 1535.36C7441.09 1535.36 7784.76 1191.65 7784.76 767.678C7784.76 343.701 7441.09 0 7017.15 0C6593.22 0 6249.55 343.701 6249.55 767.678C6249.55 1191.65 6593.22 1535.36 7017.15 1535.36Z" fill="#A60000"/>
<path d="M7335.16 1102.17H6699.14C6687.51 1102.16 6676.36 1097.53 6668.14 1089.31C6659.92 1081.08 6655.29 1069.93 6655.28 1058.3V674.463C6655.29 662.832 6659.92 651.682 6668.14 643.458C6676.36 635.234 6687.51 630.608 6699.14 630.596H7335.16C7346.79 630.608 7357.94 635.234 7366.16 643.458C7374.38 651.682 7379.01 662.832 7379.02 674.463V1058.3C7379.01 1069.93 7374.39 1081.08 7366.16 1089.31C7357.94 1097.53 7346.79 1102.16 7335.16 1102.17ZM6699.14 674.463V1058.3H7335.19L7335.16 674.463L6699.14 674.463Z" fill="white"/>
<path d="M7214.54 674.458H6819.77V498.989C6819.77 371.896 6902.78 279.652 7017.15 279.652C7131.52 279.652 7214.54 371.896 7214.54 498.989L7214.54 674.458ZM6863.63 630.591H7170.67V498.989C7170.67 395.677 7107.54 323.52 7017.15 323.52C6926.76 323.52 6863.63 395.677 6863.63 498.989L6863.63 630.591Z" fill="white"/>
<path d="M7017.15 899.281C7041.38 899.281 7061.01 879.641 7061.01 855.414C7061.01 831.187 7041.38 811.547 7017.15 811.547C6992.93 811.547 6973.29 831.187 6973.29 855.414C6973.29 879.641 6992.93 899.281 7017.15 899.281Z" fill="white"/>
<path d="M6481.3 2452.09H3320.21C3304.69 2452.07 3289.81 2445.9 3278.84 2434.92C3267.86 2423.95 3261.69 2409.07 3261.67 2393.54V1609.34C3261.69 1593.82 3267.86 1578.94 3278.84 1567.96C3289.81 1556.99 3304.69 1550.81 3320.21 1550.8H6481.3C6496.82 1550.81 6511.7 1556.99 6522.67 1567.96C6533.64 1578.94 6539.82 1593.82 6539.83 1609.34V2393.54C6539.82 2409.07 6533.64 2423.95 6522.67 2434.92C6511.7 2445.9 6496.82 2452.07 6481.3 2452.09ZM3320.21 1574.21C3310.9 1574.22 3301.97 1577.93 3295.39 1584.51C3288.8 1591.1 3285.1 1600.03 3285.09 1609.34V2393.54C3285.1 2402.86 3288.8 2411.79 3295.39 2418.37C3301.97 2424.96 3310.9 2428.66 3320.21 2428.67H6481.3C6490.61 2428.66 6499.54 2424.96 6506.12 2418.37C6512.71 2411.79 6516.41 2402.86 6516.42 2393.54V1609.34C6516.41 1600.03 6512.71 1591.1 6506.12 1584.51C6499.54 1577.93 6490.61 1574.22 6481.3 1574.21L3320.21 1574.21Z" fill="#E6E6E6"/>
<path d="M3811.38 2209.83C3943.08 2209.83 4049.84 2103.06 4049.84 1971.36C4049.84 1839.65 3943.08 1732.88 3811.38 1732.88C3679.69 1732.88 3572.93 1839.65 3572.93 1971.36C3572.93 2103.06 3679.69 2209.83 3811.38 2209.83Z" fill="#E6E6E6"/>
<path d="M4362.1 1812.37C4356.87 1812.36 4351.7 1813.38 4346.87 1815.38C4342.04 1817.37 4337.65 1820.3 4333.96 1823.99C4330.26 1827.68 4327.33 1832.06 4325.32 1836.89C4323.32 1841.72 4322.29 1846.89 4322.29 1852.11C4322.29 1857.34 4323.32 1862.51 4325.32 1867.34C4327.33 1872.17 4330.26 1876.55 4333.96 1880.24C4337.65 1883.93 4342.04 1886.86 4346.87 1888.85C4351.7 1890.85 4356.87 1891.87 4362.1 1891.86H6235.67C6246.21 1891.86 6256.32 1887.67 6263.77 1880.22C6271.23 1872.77 6275.41 1862.66 6275.41 1852.11C6275.41 1841.57 6271.23 1831.46 6263.77 1824.01C6256.32 1816.56 6246.21 1812.37 6235.67 1812.37H4362.1Z" fill="#E6E6E6"/>
<path d="M4362.1 2050.85C4351.56 2050.85 4341.45 2055.04 4334 2062.49C4326.54 2069.95 4322.36 2080.06 4322.36 2090.6C4322.36 2101.14 4326.54 2111.25 4334 2118.7C4341.45 2126.16 4351.56 2130.34 4362.1 2130.34H5168.3C5178.84 2130.34 5188.95 2126.16 5196.4 2118.7C5203.86 2111.25 5208.04 2101.14 5208.04 2090.6C5208.04 2080.06 5203.86 2069.95 5196.4 2062.49C5188.95 2055.04 5178.84 2050.85 5168.3 2050.85H4362.1Z" fill="#E6E6E6"/>
<path d="M2614.28 2066.93L2029.93 2377.62L2022.54 2118.71C2213.26 2086.87 2394.72 2031.43 2562.51 1941.17L2623.62 1790.16C2630.28 1773.71 2641.1 1759.27 2655.03 1748.26C2668.95 1737.25 2685.5 1730.06 2703.05 1727.38C2720.6 1724.7 2738.54 1726.63 2755.11 1732.98C2771.69 1739.33 2786.33 1749.88 2797.59 1763.59C2814.08 1783.66 2822.32 1809.25 2820.64 1835.17C2818.97 1861.08 2807.51 1885.4 2788.58 1903.18L2614.28 2066.93Z" fill="#FFB8B8"/>
<path d="M1186.48 3860.78C1182.22 3845.14 1181.31 3828.78 1183.82 3812.77C1186.34 3796.76 1192.21 3781.46 1201.06 3767.88L1329.42 3570.87C1359.78 3524.27 1406.37 3490.61 1460.14 3476.42C1513.92 3462.23 1571.05 3468.52 1620.44 3494.08C1566.49 3585.92 1574.01 3666.48 1639.07 3736.5C1538.08 3785.81 1444.73 3849.45 1361.93 3925.45C1346.82 3935.76 1329.46 3942.3 1311.3 3944.54C1293.14 3946.78 1274.71 3944.64 1257.55 3938.32C1240.38 3931.99 1224.98 3921.65 1212.61 3908.16C1200.25 3894.68 1191.29 3878.43 1186.48 3860.78Z" fill="#2F2E41"/>
<path d="M2640.9 3603.18C2621.47 3635.55 2594.06 3662.39 2561.27 3681.12C2528.49 3699.85 2491.44 3709.83 2453.69 3710.12L1600.92 3716.58L1563.93 3502.05L1941.17 3391.09L1623.11 3146.97L1970.76 2740.11L2602.2 3328.69C2639.11 3363.09 2663.09 3409.12 2670.13 3459.08C2677.17 3509.04 2666.86 3559.91 2640.9 3603.18Z" fill="#2F2E41"/>
<path d="M1467.77 5070.33H1268.06C1088.74 3841.08 906.217 2608.4 1445.58 2148.3L2081.71 2251.87L2000.35 2791.89L1645.3 3198.75L1467.77 5070.33Z" fill="#2F2E41"/>
<path d="M1643.33 5348.8C1627.7 5353.06 1611.34 5353.97 1595.33 5351.45C1579.32 5348.94 1564.02 5343.07 1550.44 5334.22L1333.59 5305.07C1287 5274.71 1253.34 5228.12 1239.15 5174.34C1224.96 5120.57 1231.25 5063.43 1256.8 5014.03C1348.63 5067.98 1429.19 5060.45 1499.19 4995.38C1548.66 5095.27 1630.15 5089.17 1707.99 5173.33C1718.29 5188.44 1724.84 5205.8 1727.08 5223.96C1729.32 5242.12 1727.18 5260.55 1720.86 5277.72C1714.53 5294.88 1704.2 5310.29 1690.71 5322.66C1677.23 5335.02 1660.98 5343.98 1643.33 5348.8Z" fill="#2F2E41"/>
<path d="M1941.17 1327.17L1571.33 1238.4C1632.75 1112.66 1637.81 972.741 1608.31 824.138L1859.8 816.74C1867.69 1001.53 1891.53 1174.17 1941.17 1327.17Z" fill="#FFB8B8"/>
<path d="M2042.82 2474.6C1773.58 2658.08 1583.35 2480.88 1438.19 2207.48C1458.36 2040.18 1425.7 1839.98 1365.2 1622.44C1338.3 1526.5 1348.34 1423.95 1393.35 1335.04C1438.36 1246.14 1515.06 1177.34 1608.31 1142.23L1926.38 1275.39C2196.45 1495.55 2249.61 1734.03 2148.28 1985.55L2042.82 2474.6Z" fill="#A60000"/>
<path d="M1268.06 1512.11L972.183 1667.46L1497.36 1978.16L1570.43 2158.43C1575.31 2170.46 1577.69 2183.36 1577.42 2196.34C1577.15 2209.32 1574.24 2222.11 1568.86 2233.93C1563.49 2245.74 1555.76 2256.35 1546.16 2265.08C1536.56 2273.82 1525.27 2280.5 1513 2284.74C1499.05 2289.55 1484.18 2291.06 1469.54 2289.17C1454.91 2287.27 1440.91 2282.01 1428.65 2273.8C1416.39 2265.58 1406.19 2254.65 1398.86 2241.84C1391.53 2229.03 1387.27 2214.7 1386.4 2199.96L1379.01 2074.33L711.518 1854.03C689.028 1846.61 668.522 1834.17 651.554 1817.65C634.585 1801.12 621.597 1780.96 613.575 1758.67C601.883 1726.19 601.288 1690.75 611.883 1657.89C622.479 1625.03 643.667 1596.61 672.133 1577.08L1208.88 1208.81L1268.06 1512.11Z" fill="#FFB8B8"/>
<path d="M1563.93 1541.7C1440.53 1487.62 1328.32 1546.37 1186.69 1593.48L1164.5 1201.41C1305.14 1126.45 1439.22 1106.24 1563.93 1164.42L1563.93 1541.7Z" fill="#A60000"/>
<path d="M1711.54 1010.94C1841.95 1010.94 1947.67 905.214 1947.67 774.791C1947.67 644.368 1841.95 538.639 1711.54 538.639C1581.13 538.639 1475.41 644.368 1475.41 774.791C1475.41 905.214 1581.13 1010.94 1711.54 1010.94Z" fill="#FFB8B8"/>
<path d="M1994.03 744.997C1760.24 767.897 1582.1 729.658 1468.24 620.779V533.096H1974.19L1994.03 744.997Z" fill="#2F2E41"/>
</svg>
