<svg width="6944" height="4152" viewBox="0 0 6944 4152" fill="none" xmlns="http://www.w3.org/2000/svg">
<g clip-path="url(#clip0)">
<path d="M5316.49 4105.05C5227.59 4029.92 5173.59 3911.23 5187.75 3795.7C5201.91 3680.16 5289.63 3573.94 5403.4 3549.41C5517.18 3524.87 5646.87 3592.79 5681.43 3703.94C5700.45 3489.64 5722.36 3266.36 5836.29 3083.87C5939.44 2918.62 6118.11 2800.38 6311.74 2779.23C6505.38 2758.07 6709.25 2837.97 6830.01 2990.81C6950.77 3143.66 6980.34 3365.88 6895.76 3541.36C6833.46 3670.63 6718.67 3766.84 6598.39 3845.11C6209.75 4095.89 5743.63 4197.88 5285.79 4132.29L5316.49 4105.05Z" fill="#FBC301"/>
<path d="M6638.53 2842.4C6478.75 2972.55 6332.18 3118.11 6200.92 3276.98C5995.51 3524.76 5829.29 3802.57 5708.04 4100.73C5699.17 4122.48 5734.48 4131.95 5743.26 4110.44C5941.63 3625.87 6258.32 3198.78 6664.35 2868.22C6682.58 2853.37 6656.61 2827.67 6638.53 2842.4Z" fill="white"/>
<path d="M2235.39 4084.64C2357.49 3981.45 2431.66 3818.43 2412.21 3659.74C2392.76 3501.05 2272.29 3355.16 2116.02 3321.46C1959.75 3287.77 1781.61 3381.05 1734.14 3533.72C1708.02 3239.38 1677.92 2932.7 1521.45 2682.04C1379.76 2455.08 1134.36 2292.67 868.409 2263.62C602.452 2234.57 322.435 2344.3 156.568 2554.24C-9.29934 2764.18 -49.9112 3069.38 66.2578 3310.41C151.835 3487.97 309.5 3620.11 474.692 3727.61C1001.71 4070.58 1655.48 4213.62 2277.56 4122.06" fill="#EDCCCC"/>
<path d="M419.569 2350.38C639.016 2529.14 840.335 2729.08 1020.62 2947.28C1200.92 3165.27 1359.67 3400.23 1494.61 3648.87C1570.04 3788.35 1637.8 3931.84 1697.59 4078.7C1709.78 4108.57 1661.27 4121.58 1649.22 4092.04C1543.32 3833.12 1412.3 3585.2 1258.05 3351.84C1104.54 3119.33 928.843 2902.26 733.424 2703.68C622.895 2591.41 506.277 2485.31 384.099 2385.86C359.056 2365.46 394.733 2330.16 419.569 2350.38L419.569 2350.38Z" fill="white"/>
<path d="M4984.51 4142.91H2071.23V1153.47C2071.23 517.443 2588.61 0 3224.57 0H3831.17C4467.13 0 4984.51 517.443 4984.51 1153.47V4142.91Z" fill="#F2F2F2"/>
<path d="M4377.91 4142.91H2071.22V1153.47C2070.59 909.759 2147.75 672.208 2291.48 475.402C2296.78 468.18 2302.07 461.051 2307.52 454C2377.04 362.809 2459.77 282.498 2552.98 215.718C2558.25 211.887 2563.54 208.122 2568.9 204.357C2646.9 150.374 2731.27 106.245 2820.1 72.9728C2825.37 70.9733 2830.74 68.9698 2836.11 67.0482C2916.45 38.3757 2999.73 18.7352 3084.41 8.48927C3089.66 7.77204 3095.05 7.2108 3100.44 6.64955C3182.96 -2.17485 3266.19 -2.17485 3348.71 6.64955C3354.08 7.2108 3359.47 7.77197 3364.79 8.49694C3449.45 18.7435 3532.7 38.3816 3613.02 67.0485C3618.39 68.9702 3623.76 70.9735 3629.05 72.977C3716.78 105.829 3800.16 149.3 3877.33 202.42C3882.69 206.103 3888.06 209.868 3893.34 213.633C3945.59 250.933 3994.67 292.488 4040.07 337.873C4076.49 374.276 4110.42 413.08 4141.64 454.024C4147.07 461.052 4152.35 468.181 4157.64 475.391C4301.38 672.198 4378.55 909.754 4377.91 1153.47V4142.91Z" fill="#CCCCCC"/>
<path d="M4377.91 4142.91H2071.22V1153.47C2070.59 909.759 2147.75 672.208 2291.48 475.402C2296.78 468.18 2302.07 461.051 2307.52 454C2377.04 362.809 2459.77 282.498 2552.98 215.718C2558.25 211.887 2563.54 208.122 2568.9 204.357C2646.9 150.374 2731.27 106.245 2820.1 72.9728C2825.37 70.9733 2830.74 68.9698 2836.11 67.0482C2916.45 38.3757 2999.73 18.7352 3084.41 8.48927C3089.66 7.77204 3095.05 7.2108 3100.44 6.64955C3182.96 -2.17485 3266.19 -2.17485 3348.71 6.64955C3354.08 7.2108 3359.47 7.77197 3364.79 8.49694C3449.45 18.7435 3532.7 38.3816 3613.02 67.0485C3618.39 68.9702 3623.76 70.9735 3629.05 72.977C3716.78 105.829 3800.16 149.3 3877.33 202.42C3882.69 206.103 3888.06 209.868 3893.34 213.633C3945.59 250.933 3994.67 292.488 4040.07 337.873C4076.49 374.276 4110.42 413.08 4141.64 454.024C4147.07 461.052 4152.35 468.181 4157.64 475.391C4301.38 672.198 4378.55 909.754 4377.91 1153.47V4142.91Z" fill="#A60000"/>
<path d="M4190.34 2805.84C4260.87 2805.84 4318.05 2748.66 4318.05 2678.13C4318.05 2607.59 4260.87 2550.41 4190.34 2550.41C4119.81 2550.41 4062.64 2607.59 4062.64 2678.13C4062.64 2748.66 4119.81 2805.84 4190.34 2805.84Z" fill="#A60000"/>
<path d="M4745.86 4053.37H4648L4601.45 3675.9L4745.87 3675.9L4745.86 4053.37Z" fill="#FFB8B8"/>
<path d="M4578.1 4025.41H4766.82V4144.25H4459.28C4459.28 4128.64 4462.36 4113.19 4468.33 4098.77C4474.3 4084.35 4483.05 4071.25 4494.08 4060.22C4505.12 4049.18 4518.22 4040.43 4532.63 4034.46C4547.05 4028.48 4562.5 4025.41 4578.1 4025.41Z" fill="#2F2E41"/>
<path d="M5232.73 4053.37H5134.88L5088.32 3675.9L5232.75 3675.9L5232.73 4053.37Z" fill="#FFB8B8"/>
<path d="M5064.98 4025.41H5253.7V4144.25H4946.16C4946.16 4128.64 4949.23 4113.19 4955.2 4098.77C4961.17 4084.35 4969.93 4071.25 4980.96 4060.22C4991.99 4049.18 5005.09 4040.43 5019.51 4034.46C5033.92 4028.48 5049.38 4025.41 5064.98 4025.41Z" fill="#2F2E41"/>
<path d="M4254.97 2703.43C4247.93 2693.05 4243.25 2681.26 4241.26 2668.89C4239.27 2656.51 4240.02 2643.85 4243.45 2631.79C4246.89 2619.73 4252.92 2608.57 4261.13 2599.1C4269.34 2589.63 4279.53 2582.07 4290.97 2576.96L4623.61 1660.04L4787.29 1749.37L4407.49 2625.62C4414.8 2645.42 4414.59 2667.21 4406.9 2686.87C4399.22 2706.53 4384.59 2722.68 4365.79 2732.27C4346.99 2741.86 4325.33 2744.23 4304.9 2738.91C4284.48 2733.59 4266.71 2720.97 4254.97 2703.43Z" fill="#FFB8B8"/>
<path d="M5182.75 2875.72C5171.87 2869.48 5162.5 2860.94 5155.28 2850.69C5148.07 2840.44 5143.19 2828.73 5140.98 2816.39C5138.78 2804.04 5139.31 2791.37 5142.54 2779.25C5145.77 2767.14 5151.61 2755.88 5159.66 2746.27L5056.61 1776.32L5242.88 1784.83L5285.71 2738.9C5300.96 2753.5 5310.32 2773.17 5312.03 2794.21C5313.74 2815.25 5307.68 2836.18 5294.99 2853.05C5282.3 2869.91 5263.86 2881.53 5243.18 2885.71C5222.49 2889.89 5200.99 2886.34 5182.75 2875.72Z" fill="#FFB8B8"/>
<path d="M4885.59 1490.2C4993.86 1490.2 5081.63 1402.42 5081.63 1294.14C5081.63 1185.86 4993.86 1098.08 4885.59 1098.08C4777.32 1098.08 4689.55 1185.86 4689.55 1294.14C4689.55 1402.42 4777.32 1490.2 4885.59 1490.2Z" fill="#FFB8B8"/>
<path d="M5181.5 2655.12H4590.49L4591.2 2650.52C4592.26 2643.65 4696.53 1960.53 4619.63 1737.04C4611.91 1715.08 4612.59 1691.04 4621.53 1669.54C4630.47 1648.05 4647.05 1630.63 4668.07 1620.63H4668.07C4777.99 1568.86 4988.99 1505.11 5167.08 1659.81C5193.29 1682.95 5213.75 1711.87 5226.86 1744.29C5239.96 1776.7 5245.34 1811.72 5242.58 1846.57L5181.5 2655.12Z" fill="#A60000"/>
<path d="M4704 2061.49L4437.92 2007.5L4562.64 1711.91C4570.1 1683.28 4588.62 1658.78 4614.12 1643.78C4639.62 1628.79 4670.03 1624.52 4698.67 1631.91C4727.31 1639.31 4751.86 1657.76 4766.91 1683.23C4781.97 1708.7 4786.31 1739.1 4778.99 1767.77L4704 2061.49Z" fill="#A60000"/>
<path d="M5044.78 2161.72L5028.78 1794.99C5016.65 1726.05 5056.11 1660.89 5116.8 1650.23C5177.5 1639.62 5236.78 1687.43 5248.96 1756.88L5309.09 2099.55L5044.78 2161.72Z" fill="#A60000"/>
<path d="M5161.83 2611.22C5256.93 2973.44 5267.31 3433.97 5241.65 3936.31L5113.94 3920.35L4882.48 2962.45L4754.77 3936.31L4611.1 3928.33C4568.18 3401.25 4526.39 2948.76 4595.14 2651.13L5161.83 2611.22Z" fill="#2F2E41"/>
<path d="M5014.76 1445.66C4978.19 1484.62 4910.27 1463.71 4905.51 1410.48C4905.13 1406.35 4905.16 1402.19 4905.59 1398.06C4908.05 1374.48 4921.67 1353.08 4918.4 1328.19C4917.67 1321.99 4915.36 1316.09 4911.7 1311.03C4882.56 1272 4814.15 1328.49 4786.64 1293.16C4769.78 1271.49 4789.6 1237.38 4776.66 1213.17C4759.58 1181.21 4708.98 1196.98 4677.26 1179.47C4641.96 1160 4644.07 1105.83 4667.31 1072.89C4695.64 1032.71 4745.33 1011.26 4794.4 1008.17C4843.47 1005.08 4892.2 1018.35 4938.01 1036.2C4990.06 1056.49 5041.67 1084.53 5073.7 1130.3C5112.65 1185.96 5116.4 1260.8 5096.92 1325.88C5085.07 1365.48 5044.63 1413.84 5014.76 1445.66Z" fill="#2F2E41"/>
<path d="M6704.4 4148.05H811.628C809.113 4148.04 806.703 4147.03 804.926 4145.25C803.15 4143.47 802.152 4141.06 802.152 4138.54C802.152 4136.02 803.15 4133.61 804.926 4131.83C806.703 4130.05 809.113 4129.04 811.628 4129.04H6704.4C6706.92 4129.04 6709.33 4130.05 6711.1 4131.83C6712.88 4133.61 6713.88 4136.02 6713.88 4138.54C6713.88 4141.06 6712.88 4143.47 6711.1 4145.25C6709.33 4147.03 6706.92 4148.04 6704.4 4148.05Z" fill="#3F3D56"/>
<path d="M3743.37 3276.81H2705.77C2692.1 3276.89 2678.96 3271.54 2669.24 3261.94C2659.51 3252.33 2653.99 3239.27 2653.88 3225.6V909.328C2653.99 895.662 2659.51 882.595 2669.24 872.995C2678.96 863.394 2692.1 858.044 2705.77 858.118H3743.37C3757.04 858.044 3770.18 863.394 3779.9 872.995C3789.63 882.595 3795.15 895.662 3795.25 909.328V3225.6C3795.15 3239.27 3789.63 3252.33 3779.9 3261.94C3770.18 3271.54 3757.04 3276.89 3743.37 3276.81Z" fill="white"/>
<path d="M3795.25 1607.59H2653.88V1623.56H3795.25V1607.59Z" fill="#CCCCCC"/>
<path d="M3799.25 2518.47H2657.88V2534.44H3799.25V2518.47Z" fill="#CCCCCC"/>
<path d="M3029.02 858.117H3013.06V3284.79H3029.02V858.117Z" fill="#CCCCCC"/>
<path d="M3428.1 858.117H3412.14V3284.79H3428.1V858.117Z" fill="#CCCCCC"/>
</g>
<defs>
<clipPath id="clip0">
<rect width="6944" height="4152" fill="white"/>
</clipPath>
</defs>
</svg>
