<svg width="533" height="382" viewBox="0 0 533 382" fill="none" xmlns="http://www.w3.org/2000/svg">
<g clip-path="url(#clip0)">
<path opacity="0.1" d="M524.137 256.26C511.784 281.74 486.703 298.779 460.711 310.015C425.718 325.148 387.183 331.15 349.178 328.611C342.518 328.168 335.877 327.46 329.257 326.487C306.265 323.132 283.85 316.605 262.652 307.091C256.534 304.336 250.54 301.328 244.67 298.068C234.865 292.633 225.471 286.49 216.562 279.686C214.321 277.975 212.111 276.221 209.933 274.423C208.422 273.177 206.925 271.903 205.405 270.667C202.197 268.059 198.896 265.581 195.214 263.726C194.103 263.166 192.964 262.663 191.802 262.22C180.142 257.784 166.697 259.458 154.559 262.917C145.326 265.548 136.326 269.151 127.102 271.722C123 272.9 118.819 273.789 114.592 274.381C105.154 275.576 95.5696 274.734 86.4844 271.913L85.708 271.671C84.4063 271.262 83.1154 270.814 81.8354 270.327L81.0591 270.03C79.8193 269.552 78.606 269.04 77.4189 268.491L76.6425 268.138C75.4028 267.561 74.1894 266.952 73.0024 266.311C72.5747 266.087 72.1517 265.846 71.7333 265.618C64.9796 261.846 58.8406 257.066 53.528 251.443C53.3745 251.29 53.2304 251.132 53.0631 250.978C52.3239 250.179 51.5986 249.365 50.8966 248.533C50.6363 248.226 50.376 247.919 50.1203 247.603C49.2866 246.587 48.4823 245.547 47.7075 244.484C47.5912 244.33 47.4797 244.172 47.3681 244.019C44.1936 239.627 41.5618 234.868 39.53 229.844C39.4649 229.691 39.4044 229.533 39.3487 229.379C38.7288 227.783 38.1632 226.161 37.6518 224.512C37.4426 223.824 37.2427 223.117 37.066 222.429C37.0056 222.225 36.9498 222.015 36.8987 221.811C34.3324 211.709 34.0396 201.207 34.0396 190.765C34.0396 189.547 34.0396 188.331 34.0396 187.116C34.1139 170.226 34.3743 153.048 36.8661 136.391C36.8661 136.275 36.8987 136.159 36.9172 136.047C37.7513 130.439 38.8857 124.88 40.3156 119.394C41.8122 113.638 43.7249 107.998 46.0385 102.519C51.7707 89.0368 60.1062 76.7682 69.3623 65.3969C92.6768 36.7826 123.253 12.7614 159.041 3.77035C197.604 -5.91342 240.462 3.36589 271.568 28.1309C281.052 35.6808 289.574 44.6207 300.225 50.4086C309.522 55.4481 320.406 57.5355 330.364 53.5699C338.592 50.2924 343.948 48.6653 353.19 49.1627C372.323 50.2451 391.185 54.1959 409.145 60.8827C409.87 61.1477 410.595 61.422 411.316 61.6963C458.136 79.6087 498.382 115.196 519.302 160.928C519.857 162.137 520.394 163.355 520.915 164.582C533.388 193.717 537.898 227.864 524.137 256.26Z" fill="#A60000"/>
<path opacity="0.1" d="M55.9269 345.412C78.5932 345.412 96.9679 342.461 96.9679 338.82C96.9679 335.179 78.5932 332.228 55.9269 332.228C33.2606 332.228 14.886 335.179 14.886 338.82C14.886 342.461 33.2606 345.412 55.9269 345.412Z" fill="#A60000"/>
<path opacity="0.1" d="M424.105 381.172C464.295 381.172 496.875 378.008 496.875 374.105C496.875 370.203 464.295 367.039 424.105 367.039C383.915 367.039 351.335 370.203 351.335 374.105C351.335 378.008 383.915 381.172 424.105 381.172Z" fill="#A60000"/>
<path d="M489.99 50.0923H59.7995C56.5926 50.0923 53.9929 52.692 53.9929 55.8988V294.553C53.9929 297.76 56.5926 300.359 59.7995 300.359H489.99C493.197 300.359 495.797 297.76 495.797 294.553V55.8988C495.797 52.692 493.197 50.0923 489.99 50.0923Z" fill="url(#paint0_linear)"/>
<path d="M489.339 53.6118H60.5015C57.2946 53.6118 54.6949 56.2115 54.6949 59.4184V293.721C54.6949 296.928 57.2946 299.527 60.5015 299.527H489.339C492.546 299.527 495.146 296.928 495.146 293.721V59.4184C495.146 56.2115 492.546 53.6118 489.339 53.6118Z" fill="white"/>
<path d="M489.339 53.6118H60.5015C57.2946 53.6118 54.6949 56.2115 54.6949 59.4184V293.721C54.6949 296.928 57.2946 299.527 60.5015 299.527H489.339C492.546 299.527 495.146 296.928 495.146 293.721V59.4184C495.146 56.2115 492.546 53.6118 489.339 53.6118Z" fill="white"/>
<path opacity="0.04" d="M489.339 53.6118H60.5015C57.2946 53.6118 54.6949 56.2115 54.6949 59.4184V293.721C54.6949 296.928 57.2946 299.527 60.5015 299.527H489.339C492.546 299.527 495.146 296.928 495.146 293.721V59.4184C495.146 56.2115 492.546 53.6118 489.339 53.6118Z" fill="white"/>
<path d="M492.91 50.79H56.9311C56.338 50.79 55.7693 51.0256 55.3499 51.445C54.9305 51.8644 54.6949 52.4331 54.6949 53.0262V62.4775H495.127V53.0262C495.127 52.4363 494.894 51.8704 494.479 51.4515C494.064 51.0327 493.5 50.7949 492.91 50.79Z" fill="#5A5773"/>
<path d="M63.4908 59.655C65.1597 59.655 66.5126 58.3021 66.5126 56.6331C66.5126 54.9642 65.1597 53.6113 63.4908 53.6113C61.8219 53.6113 60.469 54.9642 60.469 56.6331C60.469 58.3021 61.8219 59.655 63.4908 59.655Z" fill="white"/>
<path d="M71.6264 59.655C73.2953 59.655 74.6483 58.3021 74.6483 56.6331C74.6483 54.9642 73.2953 53.6113 71.6264 53.6113C69.9575 53.6113 68.6046 54.9642 68.6046 56.6331C68.6046 58.3021 69.9575 59.655 71.6264 59.655Z" fill="white"/>
<path d="M79.7622 59.655C81.4311 59.655 82.784 58.3021 82.784 56.6331C82.784 54.9642 81.4311 53.6113 79.7622 53.6113C78.0933 53.6113 76.7404 54.9642 76.7404 56.6331C76.7404 58.3021 78.0933 59.655 79.7622 59.655Z" fill="white"/>
<path opacity="0.2" d="M209.17 84.4575H90.9707V94.49H209.17V84.4575Z" fill="#A60000"/>
<path opacity="0.1" d="M458.87 124.685H90.9707V279.012H458.87V124.685Z" fill="#5A5773"/>
<path opacity="0.1" d="M306.38 134.75H300.081V122.514C300.081 108.706 289.072 97.2282 275.264 97.019C271.935 96.984 268.632 97.6083 265.545 98.8558C262.457 100.103 259.648 101.949 257.277 104.288C254.907 106.626 253.023 109.411 251.734 112.48C250.444 115.55 249.775 118.845 249.765 122.174V134.75H243.48C240.702 134.758 238.04 135.866 236.076 137.83C234.112 139.794 233.005 142.456 232.996 145.233V195.544C233.005 198.322 234.112 200.983 236.076 202.948C238.04 204.912 240.702 206.019 243.48 206.028H306.38C309.157 206.019 311.818 204.912 313.782 202.947C315.745 200.983 316.851 198.322 316.859 195.544V145.233C316.851 142.456 315.745 139.794 313.782 137.83C311.818 135.866 309.157 134.758 306.38 134.75ZM278.602 167.455V185.475C278.609 186.429 278.252 187.349 277.604 188.05C276.957 188.751 276.067 189.18 275.116 189.25C274.619 189.273 274.123 189.195 273.657 189.021C273.191 188.847 272.765 188.58 272.405 188.237C272.045 187.894 271.759 187.481 271.563 187.024C271.367 186.566 271.266 186.074 271.266 185.577V167.446C269.566 166.617 268.196 165.235 267.382 163.527C266.567 161.82 266.355 159.886 266.781 158.042C267.206 156.199 268.244 154.554 269.725 153.376C271.206 152.198 273.042 151.556 274.934 151.556C276.827 151.556 278.663 152.198 280.144 153.376C281.625 154.554 282.662 156.199 283.088 158.042C283.514 159.886 283.302 161.82 282.487 163.527C281.673 165.235 280.303 166.617 278.602 167.446V167.455ZM292.754 134.75H257.101V122.174C257.101 117.448 258.978 112.916 262.32 109.574C265.662 106.232 270.194 104.355 274.92 104.355C279.646 104.355 284.179 106.232 287.521 109.574C290.862 112.916 292.74 117.448 292.74 122.174L292.754 134.75Z" fill="black"/>
<path d="M306.38 133.82H300.081V121.584C300.081 107.777 289.072 96.2985 275.264 96.0893C271.935 96.0543 268.632 96.6786 265.545 97.9261C262.457 99.1736 259.648 101.02 257.277 103.358C254.907 105.696 253.023 108.481 251.734 111.551C250.444 114.621 249.775 117.915 249.765 121.245V133.82H243.48C240.702 133.829 238.04 134.936 236.076 136.9C234.112 138.864 233.005 141.526 232.996 144.304V194.615C233.005 197.392 234.112 200.054 236.076 202.018C238.04 203.982 240.702 205.089 243.48 205.098H306.38C309.157 205.089 311.818 203.982 313.782 202.018C315.745 200.053 316.851 197.392 316.859 194.615V144.304C316.851 141.526 315.745 138.865 313.782 136.9C311.818 134.936 309.157 133.829 306.38 133.82ZM278.602 166.526V184.545C278.609 185.499 278.252 186.42 277.604 187.121C276.957 187.822 276.067 188.25 275.116 188.32C274.619 188.343 274.123 188.265 273.657 188.091C273.191 187.917 272.765 187.65 272.405 187.307C272.045 186.964 271.759 186.551 271.563 186.094C271.367 185.637 271.266 185.145 271.266 184.647V166.516C269.566 165.687 268.196 164.306 267.382 162.598C266.567 160.89 266.355 158.956 266.781 157.113C267.206 155.269 268.244 153.624 269.725 152.446C271.206 151.268 273.042 150.627 274.934 150.627C276.827 150.627 278.663 151.268 280.144 152.446C281.625 153.624 282.662 155.269 283.088 157.113C283.514 158.956 283.302 160.89 282.487 162.598C281.673 164.306 280.303 165.687 278.602 166.516V166.526ZM292.754 133.82H257.101V121.245C257.101 116.519 258.978 111.986 262.32 108.645C265.662 105.303 270.194 103.425 274.92 103.425C279.646 103.425 284.179 105.303 287.521 108.645C290.862 111.986 292.74 116.519 292.74 121.245L292.754 133.82Z" fill="#A60000"/>
<path opacity="0.1" d="M458.87 109.832H421.632V118.623H458.87V109.832Z" fill="#5A5773"/>
<path d="M471.543 376.235C471.298 375.003 470.878 373.811 470.297 372.697L464.719 364.366H464.751C464.751 364.366 463.872 360.182 464.751 358.127C465.63 356.073 461.618 351.019 461.618 351.019C461.618 351.019 461.13 349.75 462.403 348.188C463.677 346.626 461.618 342.051 461.618 342.051C461.618 342.051 460.641 332.498 460.544 331.038C460.446 329.578 459.66 321.489 459.66 321.489L457.801 304.339L454.491 258.886L454.43 258.036C454.84 257.836 455.058 257.71 455.058 257.71L454.398 232.578L454.97 232.062C459.963 227.543 471.478 217.083 471.362 216.855C471.246 216.627 469.967 199.389 469.818 195.075C469.691 192.009 469.02 188.99 467.838 186.158C467.55 185.586 466.718 181.816 466.374 180.221C466.281 179.784 466.22 179.51 466.22 179.51C466.22 179.51 462.845 173.076 463.138 170.152C463.431 167.228 464.017 165.038 456.82 164.015C456.82 164.015 450.776 163.113 447.178 160.654C445.05 159.181 442.724 158.016 440.27 157.195C440.27 157.195 438.252 153.476 436.848 154.736C436.254 153.409 435.809 152.019 435.523 150.594L435.481 150.333C438.146 148.475 440.064 145.73 440.893 142.588C440.939 142.411 440.976 142.23 441.018 142.054C441.158 142.101 441.303 142.127 441.451 142.133C442.673 142.133 443.426 140.77 444.57 140.338C445.035 140.157 445.607 140.129 445.965 139.762C446.083 139.62 446.171 139.456 446.223 139.279C446.276 139.103 446.293 138.917 446.271 138.734C446.283 138.607 446.283 138.48 446.271 138.353C446.274 138.308 446.274 138.263 446.271 138.218V138.265C445.96 136.572 444.649 135.071 444.793 133.351C444.933 131.733 446.355 130.31 446.239 128.734C446.237 128.61 446.226 128.485 446.206 128.362V128.418C446.033 127.803 445.714 127.238 445.277 126.772C444.776 126.091 444.119 125.539 443.361 125.164C442.715 124.88 441.967 124.815 441.362 124.476C439.586 123.509 439.591 120.989 438.536 119.269C438.083 118.551 437.442 117.972 436.681 117.595C435.921 117.219 435.071 117.059 434.226 117.135C432.906 117.265 431.711 117.967 430.405 118.195C428.619 118.511 426.802 117.93 425.109 117.265C423.417 116.6 421.702 115.871 419.884 115.871C418.066 115.871 416.1 116.8 415.551 118.516C415.258 119.446 415.402 120.445 415.179 121.389C414.78 123.053 413.32 124.243 411.809 125.071C410.879 125.587 409.773 126.177 409.484 127.154C409.484 127.126 409.484 127.102 409.484 127.079C409.464 127.157 409.448 127.236 409.438 127.316C409.429 127.42 409.429 127.524 409.438 127.628C409.438 128.297 409.791 128.934 410.028 129.571C410.47 130.783 410.46 132.113 410 133.318C409.656 134.201 409.071 134.978 408.736 135.856C408.578 136.266 408.475 136.694 408.429 137.13V137.056C408.417 137.254 408.417 137.453 408.429 137.651C408.423 138.33 408.583 139 408.894 139.603C409.107 140.02 409.402 140.39 409.76 140.691C410.119 140.992 410.534 141.218 410.981 141.356C411.911 141.57 412.492 140.659 413.473 140.891C413.649 140.934 413.821 140.988 413.989 141.054C414.022 141.263 414.054 141.472 414.091 141.677C414.685 144.806 416.352 147.629 418.806 149.659C418.806 149.771 418.843 149.882 418.857 149.999C419.154 151.852 419.283 153.729 419.243 155.605C419.243 155.605 417.778 153.462 415.77 157.6C415.77 157.6 410.53 160.621 408.722 160.965C406.913 161.309 400.493 163.546 400.493 163.546C399.525 164.246 398.36 164.622 397.165 164.62C395.161 164.62 393.497 169.003 393.738 171.388C393.98 173.773 393.594 175.531 391.73 175.628C389.866 175.726 390.884 179.505 390.898 179.571L390.726 180.384C390.363 182.048 389.573 185.619 389.294 186.177C388.112 189.009 387.44 192.027 387.309 195.093C387.165 199.408 385.914 216.581 385.77 216.874C385.672 217.064 393.562 224.275 399.108 229.314L399.912 230.04L397.36 253.879C397.434 254.798 397.707 255.689 398.16 256.492C398.613 257.295 399.234 257.989 399.982 258.528C399.982 258.807 399.982 259.091 399.954 259.384C399.842 262.173 399.619 265.548 399.173 266.432C398.392 267.994 398.587 276.371 398.587 276.371C398.587 276.371 397.802 293.423 396.825 295.278C395.849 297.133 395.649 301.024 395.942 301.787C396.235 302.549 394.961 323.028 394.961 323.028L393.985 332.191C393.985 332.191 394.278 340.959 393.394 341.154C392.511 341.349 392.023 347.393 392.023 347.393C392.023 347.393 388.894 351.679 390.261 353.237C391.628 354.794 390.061 355.482 389.917 355.868C389.773 356.254 386.932 357.728 388.987 363.176C389.006 363.23 389.028 363.283 389.052 363.334C387.128 366.007 381.028 374.631 381.4 375.942C381.675 376.776 382.256 377.474 383.027 377.895C384.464 378.755 386.928 379.155 390.847 377.895C397.355 375.798 396.89 374.287 396.89 374.287C396.924 373.581 397.227 372.914 397.737 372.425C398.247 371.935 398.926 371.66 399.633 371.656C402.325 371.461 404.333 368.978 404.333 368.978L404.017 367.802L403.585 366.175C403.636 365.71 403.966 364.896 405.444 364.445C407.699 363.762 407.109 359.476 407.109 359.476C407.109 359.476 406.913 354.994 407.89 354.408C408.866 353.823 408.48 346.417 408.48 346.417C408.48 346.417 409.559 341.057 411.121 337.449C412.683 333.841 414.552 312.41 414.552 312.41C414.552 312.41 415.821 301.884 416.997 298.863C418.173 295.841 419.252 287.366 419.252 287.366C419.252 287.366 426.5 273.331 426.592 270.211C426.592 270.211 427.522 267.287 428.452 270.504C429.382 273.721 431.995 281.42 431.995 281.42L434.538 290.871L437.573 304.999L439.535 316.891C439.535 316.891 439.238 321.373 440 322.935C440.762 324.497 441.86 328.095 441.274 328.779C440.688 329.462 442.445 332.679 442.938 333.358C443.431 334.037 442.938 348.462 442.938 348.462C442.938 348.462 445.188 360.74 448.419 362.874C448.645 363.022 448.885 363.147 449.135 363.246C449.089 364.576 449.042 366.356 449.103 367.286C449.096 367.494 449.13 367.701 449.205 367.895C449.498 368.285 452.827 370.917 453.515 370.917C454.203 370.917 456.643 372.623 456.746 373.45C456.848 374.278 463.9 377.783 464.9 377.885C465.899 377.988 470.744 378.857 471.408 377.495C471.573 377.097 471.62 376.659 471.543 376.235ZM454.217 200.635L454.719 201.067C454.719 201.067 455.235 205.089 455.602 206.293C455.969 207.497 455.528 209.84 455.528 209.84C455.561 210.714 455.736 211.578 456.044 212.397C456.481 213.275 455.16 215.186 455.16 215.186H453.984L453.617 200.133L454.217 200.635ZM419.243 155.689V155.601C419.233 155.628 419.229 155.661 419.229 155.689H419.243ZM401.181 213.638C401 213.249 400.974 212.805 401.107 212.397C401.211 212.176 401.294 211.946 401.353 211.709C401.498 211.098 401.588 210.476 401.623 209.849C401.624 209.841 401.624 209.834 401.623 209.826C401.581 209.603 401.205 207.446 401.553 206.302C401.902 205.158 402.432 201.077 402.432 201.077L402.767 200.793L403.543 200.119C403.543 200.119 403.543 199.868 403.599 199.454C403.761 202.987 403.892 206.892 403.682 207.088C403.292 207.474 401.869 211.272 402.213 211.421C402.325 211.472 402.172 212.992 401.911 215.037C401.619 214.598 401.374 214.129 401.181 213.638Z" fill="url(#paint1_linear)"/>
<path d="M438.652 159.403V165.187L426.788 171.151C426.788 171.151 415.007 164.024 417.913 161.189C419.772 159.394 419.414 154.466 418.912 151.077C418.62 149.106 418.28 147.66 418.28 147.66C418.28 147.66 439.442 141.617 436.244 146.205C435.174 147.739 435.091 149.724 435.449 151.691C436.174 155.591 438.652 159.403 438.652 159.403Z" fill="#C37098"/>
<path d="M406.151 215.958L404.622 234.796C404.622 234.796 402.33 232.717 399.364 230.012C393.864 224.996 386.054 217.822 386.147 217.632C386.291 217.339 387.541 200.249 387.676 195.954C387.803 192.904 388.467 189.902 389.638 187.083C389.917 186.525 390.703 182.974 391.033 181.314C391.144 180.798 391.214 180.463 391.214 180.463L393.78 179.431C393.78 179.431 404.473 191.36 404.473 191.579C404.473 191.797 403.743 200.96 403.743 200.96L402.985 201.621L402.655 201.904C402.655 201.904 402.144 205.907 401.781 207.106C401.418 208.306 401.809 210.389 401.851 210.612C401.817 211.238 401.728 211.86 401.586 212.471C401.525 212.706 401.443 212.935 401.339 213.155C401.208 213.562 401.235 214.003 401.414 214.391C401.62 214.93 401.889 215.444 402.213 215.921L406.151 215.958Z" fill="#3F3D56"/>
<path d="M470.953 217.631C471.064 217.859 459.66 228.268 454.719 232.764L452.478 234.795L450.962 215.958H454.891C454.891 215.958 456.202 214.066 455.765 213.192C455.46 212.377 455.289 211.518 455.258 210.649C455.258 210.649 455.69 208.324 455.328 207.12C454.965 205.916 454.454 201.918 454.454 201.918L453.956 201.49L453.366 200.974C453.366 200.974 452.636 191.811 452.636 191.593C452.636 191.374 463.328 179.445 463.328 179.445L465.876 180.463C465.876 180.463 465.932 180.737 466.025 181.174C466.369 182.76 467.192 186.511 467.475 187.083C468.646 189.901 469.31 192.904 469.437 195.953C469.558 200.249 470.804 217.338 470.953 217.631Z" fill="#3F3D56"/>
<path d="M470.999 377.527C470.316 378.885 465.518 377.992 464.528 377.918C463.538 377.844 456.546 374.324 456.448 373.502C456.35 372.679 453.928 370.982 453.25 370.982C452.571 370.982 449.275 368.36 448.982 367.974C448.908 367.781 448.874 367.576 448.884 367.37C448.782 365.775 448.982 361.67 448.982 361.67L463.045 362.446L469.879 372.725C470.455 373.834 470.871 375.019 471.115 376.244C471.198 376.674 471.158 377.119 470.999 377.527Z" fill="#3F3D56"/>
<path opacity="0.1" d="M470.999 377.527C470.316 378.885 465.518 377.992 464.528 377.918C463.538 377.844 456.546 374.324 456.448 373.502C456.35 372.679 453.928 370.982 453.25 370.982C452.571 370.982 449.275 368.36 448.982 367.974C448.908 367.781 448.874 367.576 448.884 367.37C448.782 365.775 448.982 361.67 448.982 361.67L463.045 362.446L469.879 372.725C470.455 373.834 470.871 375.019 471.115 376.244C471.198 376.674 471.158 377.119 470.999 377.527Z" fill="black"/>
<path opacity="0.1" d="M470.999 377.527C470.316 378.885 465.518 377.992 464.528 377.918C463.538 377.843 456.546 374.324 456.448 373.501C456.35 372.678 453.928 370.981 453.25 370.981C452.571 370.981 449.275 368.359 448.982 367.973C448.908 367.781 448.874 367.575 448.884 367.369L453.44 370.251C453.44 370.251 456.35 372.111 457.127 373.213C457.903 374.315 464.021 376.607 464.528 376.653C464.904 376.69 468.921 375.919 471.115 376.244C471.198 376.674 471.158 377.119 470.999 377.527Z" fill="black"/>
<path d="M404.519 369.043C404.519 369.043 402.529 371.517 399.87 371.707C399.169 371.712 398.496 371.987 397.99 372.474C397.485 372.961 397.186 373.623 397.155 374.324C397.155 374.324 397.62 375.831 391.191 377.918C387.309 379.169 384.868 378.774 383.446 377.918C382.682 377.497 382.106 376.803 381.832 375.975C381.395 374.427 389.977 362.642 389.977 362.642L397.788 362.177L403.366 364.696L404.222 367.89L404.519 369.043Z" fill="#3F3D56"/>
<path opacity="0.1" d="M404.519 369.043C404.519 369.043 402.529 371.517 399.87 371.707C399.169 371.712 398.496 371.987 397.99 372.474C397.485 372.961 397.186 373.623 397.155 374.324C397.155 374.324 397.62 375.831 391.191 377.918C387.309 379.169 384.868 378.774 383.446 377.918C382.682 377.497 382.106 376.803 381.832 375.975C381.395 374.427 389.977 362.642 389.977 362.642L397.788 362.177L403.366 364.696L404.222 367.89L404.519 369.043Z" fill="black"/>
<path opacity="0.1" d="M404.519 369.043C404.519 369.043 402.529 371.516 399.87 371.706C399.169 371.712 398.496 371.986 397.99 372.473C397.485 372.96 397.186 373.623 397.155 374.324C397.155 374.324 397.62 375.83 391.191 377.917C387.309 379.168 384.868 378.773 383.446 377.917C387.104 377.536 395.189 375.226 395.998 374.426C396.969 373.454 398.183 370.786 399.006 370.739C399.577 370.702 402.483 368.954 404.226 367.871L404.519 369.043Z" fill="black"/>
<path d="M464.402 358.229C463.528 360.266 464.402 364.436 464.402 364.436C464.402 364.436 451.385 365.114 448.205 362.981C445.026 360.847 442.775 348.625 442.775 348.625C442.775 348.625 443.24 334.273 442.775 333.595C442.311 332.916 440.544 329.717 441.125 329.039C441.706 328.36 440.66 324.771 439.865 323.218C439.07 321.665 439.4 317.207 439.4 317.207L437.457 305.371L434.454 291.312L431.902 281.903C431.902 281.903 429.284 274.241 428.396 271.043C427.508 267.844 426.569 270.75 426.569 270.75C426.476 273.856 419.298 287.821 419.298 287.821C419.298 287.821 418.229 296.259 417.067 299.262C415.905 302.265 414.64 312.744 414.64 312.744C414.64 312.744 412.78 334.078 411.246 337.667C409.712 341.256 408.657 346.588 408.657 346.588C408.657 346.588 409.047 353.962 408.076 354.543C407.104 355.124 407.262 359.587 407.262 359.587C407.262 359.587 407.843 363.85 405.612 364.533C403.38 365.217 403.752 366.667 403.752 366.667C403.752 366.667 391.339 368.703 389.303 363.269C387.267 357.834 390.08 356.388 390.233 355.998C390.386 355.607 391.935 354.933 390.577 353.376C389.22 351.818 392.32 347.56 392.32 347.56C392.32 347.56 392.809 341.549 393.678 341.354C394.547 341.158 394.264 332.432 394.264 332.432L395.231 323.316C395.231 323.316 396.495 302.949 396.202 302.172C395.909 301.396 396.105 297.523 397.076 295.664C398.048 293.804 398.82 276.845 398.82 276.845C398.82 276.845 398.624 268.509 399.401 266.956C399.866 266.078 400.061 262.698 400.172 259.941C400.256 257.835 400.275 256.092 400.275 256.092L411.135 252.019L425.082 247.561L436.816 253.186L453.984 256.482L454.198 259.444L457.475 304.683L459.335 321.749C459.335 321.749 460.111 329.796 460.209 331.251C460.307 332.707 461.274 342.214 461.274 342.214C461.274 342.214 463.31 346.77 462.05 348.322C460.79 349.875 461.274 351.112 461.274 351.112C461.274 351.112 465.276 356.193 464.402 358.229Z" fill="#3F3D56"/>
<path opacity="0.1" d="M436.253 146.205C435.184 147.739 435.1 149.724 435.458 151.691C433.015 153.414 430.073 154.287 427.085 154.176C424.098 154.064 421.229 152.973 418.922 151.072C418.629 149.101 418.289 147.655 418.289 147.655C418.289 147.655 439.451 141.621 436.253 146.205Z" fill="black"/>
<path d="M441.2 140.273C441.2 142.967 440.401 145.601 438.904 147.841C437.407 150.081 435.28 151.827 432.791 152.858C430.302 153.888 427.563 154.158 424.921 153.633C422.278 153.107 419.851 151.81 417.946 149.905C416.041 148 414.744 145.573 414.218 142.93C413.693 140.288 413.963 137.549 414.994 135.06C416.025 132.571 417.77 130.444 420.01 128.947C422.25 127.45 424.884 126.652 427.578 126.652C429.369 126.643 431.144 126.989 432.801 127.671C434.457 128.352 435.963 129.355 437.229 130.622C438.496 131.889 439.499 133.394 440.18 135.05C440.862 136.707 441.208 138.482 441.2 140.273Z" fill="#C37098"/>
<path opacity="0.1" d="M444.035 162.909L439.572 242.382L415.328 237.292L410.526 205.432L415.282 162.662L418.861 163.122L425.175 163.927L431.427 164.312L438.206 163.559L444.035 162.909Z" fill="black"/>
<path d="M444.035 163.49L439.572 242.964L415.328 237.873L410.526 206.014L415.282 163.248L418.861 163.704L425.175 164.508L431.427 164.894L438.206 164.141L444.035 163.49Z" fill="#A60000"/>
<path d="M424.105 165.624L432.836 165.916L430.381 169.352C430.381 169.352 430.553 176.293 431.72 178.283C432.887 180.272 432.543 211.011 432.543 211.011L430.219 215.423L426.244 210.477L426.295 169.891L424.105 165.624Z" fill="#3F3D56"/>
<path opacity="0.1" d="M424.105 165.624L432.836 165.916L430.381 169.352C430.381 169.352 430.553 176.293 431.72 178.283C432.887 180.272 432.543 211.011 432.543 211.011L430.219 215.423L426.244 210.477L426.295 169.891L424.105 165.624Z" fill="black"/>
<path opacity="0.1" d="M437.778 156.604L429.633 165.623L434.287 170.472L441.999 162.955L437.778 156.604Z" fill="black"/>
<path d="M437.778 156.023L429.633 165.042L434.287 169.891L441.999 162.374L437.778 156.023Z" fill="#A60000"/>
<path opacity="0.1" d="M426.193 165.186L417.945 156.944L417.169 161.258L420.953 170.714L426.193 165.186Z" fill="black"/>
<path d="M426.481 164.605L418.238 156.363L417.462 160.677L421.246 170.133L426.481 164.605Z" fill="#A60000"/>
<path opacity="0.1" d="M454.24 259.458C450.281 261.344 446.042 262.57 441.688 263.089C433.687 264.107 428.452 253.926 428.452 253.926L425.398 257.9C424.426 262.122 409.638 263.186 403.627 261.587C402.379 261.279 401.206 260.724 400.177 259.955C400.261 257.849 400.279 256.106 400.279 256.106L411.139 252.034L425.086 247.575L436.82 253.2L453.989 256.497L454.24 259.458Z" fill="black"/>
<path opacity="0.1" d="M444.035 163.494L439.577 242.964L415.328 237.873L410.516 206.018L415.268 163.248L418.847 163.713C418.756 165.271 418.58 166.823 418.322 168.362C417.741 171.082 421.33 190.379 421.33 190.379C421.33 190.379 428.15 212.02 431.218 208.901C434.287 205.781 438.657 189.31 438.657 189.31C441.618 183.201 438.708 166.065 438.489 165.721C438.337 165.215 438.243 164.692 438.21 164.164L444.035 163.494Z" fill="black"/>
<path opacity="0.1" d="M454.509 224.99L454.714 232.777L452.473 234.809L450.962 215.958H454.31L454.509 224.99Z" fill="black"/>
<path opacity="0.1" d="M401.855 210.625C401.821 211.252 401.733 211.874 401.59 212.485C401.59 212.313 401.59 212.215 401.553 212.201C401.414 212.164 401.581 211.453 401.855 210.625Z" fill="black"/>
<path opacity="0.1" d="M406.151 215.958L404.622 234.795C404.622 234.795 402.33 232.717 399.364 230.012L399.717 226.674C399.717 226.674 400.967 218.473 401.423 214.428C401.63 214.967 401.898 215.48 402.223 215.958H406.151Z" fill="black"/>
<path d="M419.303 156.651C419.303 156.651 417.852 154.517 415.863 158.636C415.863 158.636 410.674 161.644 408.889 161.983C407.104 162.323 400.754 164.554 400.754 164.554C399.795 165.247 398.641 165.62 397.458 165.619C395.468 165.619 393.817 169.984 394.059 172.36C394.301 174.735 393.915 176.483 392.074 176.581C390.233 176.679 391.247 180.505 391.247 180.505L403.515 194.568C403.515 194.568 404.291 207.515 403.906 207.906C403.52 208.296 402.111 212.09 402.45 212.22C402.79 212.35 400.591 226.669 400.591 226.669L397.634 254.456C397.634 254.456 397.634 259.104 403.65 260.708C409.666 262.312 424.463 261.252 425.416 257.031L428.471 253.052C428.471 253.052 433.705 263.237 441.706 262.219C449.707 261.201 454.802 258.291 454.802 258.291L453.928 224.99L453.347 200.988L465.839 180.463C465.839 180.463 462.492 174.061 462.785 171.165C463.077 168.269 463.654 166.074 456.527 165.056C456.527 165.056 450.516 164.159 446.973 161.709C444.868 160.247 442.568 159.089 440.14 158.269C440.14 158.269 438.14 154.55 436.75 155.823C436.75 155.823 438.145 161.081 438.029 161.867C437.913 162.653 438.247 166.204 438.466 166.572C438.684 166.939 441.595 184.052 438.633 190.161C438.633 190.161 434.286 206.632 431.195 209.751C428.103 212.871 421.307 191.23 421.307 191.23C421.307 191.23 417.718 171.927 418.299 169.212C418.88 166.497 419.303 156.651 419.303 156.651Z" fill="#3F3D56"/>
<path d="M429.679 220.225C430.858 220.225 431.813 219.27 431.813 218.091C431.813 216.913 430.858 215.958 429.679 215.958C428.501 215.958 427.546 216.913 427.546 218.091C427.546 219.27 428.501 220.225 429.679 220.225Z" fill="#3F3D56"/>
<path d="M429.679 230.286C430.858 230.286 431.813 229.33 431.813 228.152C431.813 226.973 430.858 226.018 429.679 226.018C428.501 226.018 427.546 226.973 427.546 228.152C427.546 229.33 428.501 230.286 429.679 230.286Z" fill="#3F3D56"/>
<path opacity="0.1" d="M429.679 220.225C430.858 220.225 431.813 219.27 431.813 218.091C431.813 216.913 430.858 215.958 429.679 215.958C428.501 215.958 427.546 216.913 427.546 218.091C427.546 219.27 428.501 220.225 429.679 220.225Z" fill="black"/>
<path opacity="0.1" d="M429.679 230.286C430.858 230.286 431.813 229.33 431.813 228.152C431.813 226.973 430.858 226.018 429.679 226.018C428.501 226.018 427.546 226.973 427.546 228.152C427.546 229.33 428.501 230.286 429.679 230.286Z" fill="black"/>
<path opacity="0.1" d="M448.856 355.319C448.856 355.319 457.615 355.998 458.484 356.677C459.354 357.356 448.856 355.319 448.856 355.319Z" fill="black" stroke="#A60000" stroke-width="0.464895" stroke-miterlimit="10"/>
<path opacity="0.1" d="M396.709 348.435C396.709 348.435 398.569 350.759 397.778 351.828C396.988 352.898 396.709 348.435 396.709 348.435Z" fill="black" stroke="#A60000" stroke-width="0.464895" stroke-miterlimit="10"/>
<path opacity="0.1" d="M398.94 356.816C398.94 356.816 402.334 354.585 403.692 356.068C405.049 357.551 398.94 356.816 398.94 356.816Z" fill="black" stroke="#A60000" stroke-width="0.464895" stroke-miterlimit="10"/>
<path opacity="0.1" d="M441.199 140.273C441.202 141.435 441.055 142.593 440.762 143.718C440.476 143.587 440.236 143.372 440.075 143.101C439.913 142.83 439.839 142.517 439.861 142.202C439.921 141.649 440.288 141.142 440.209 140.594C440.093 139.748 439.07 139.404 438.531 138.734C437.866 137.925 438.01 136.749 438.066 135.703C438.122 134.657 437.857 133.379 436.876 133.021C436.583 132.914 436.262 132.904 435.979 132.783C435.207 132.458 434.97 131.5 434.454 130.84C433.422 129.511 431.372 129.538 429.805 130.171C429.123 130.498 428.425 130.789 427.713 131.045C427.356 131.17 426.978 131.221 426.601 131.193C426.224 131.165 425.857 131.059 425.523 130.882C425.216 130.687 424.97 130.417 424.654 130.222C423.603 129.59 422.227 130.222 421.316 131.035C420.405 131.849 419.675 132.942 418.527 133.439C418.011 133.671 417.374 133.811 417.132 134.313C417.012 134.586 416.961 134.885 416.983 135.182C416.983 136.991 417.197 138.827 416.82 140.598C416.579 141.737 415.779 143.03 414.621 142.89C414.477 142.869 414.335 142.833 414.198 142.783C413.85 140.921 413.894 139.007 414.327 137.163C414.76 135.319 415.573 133.586 416.714 132.073C417.855 130.561 419.299 129.304 420.953 128.381C422.607 127.458 424.436 126.891 426.322 126.715C428.208 126.539 430.11 126.759 431.907 127.359C433.703 127.96 435.355 128.929 436.756 130.204C438.157 131.479 439.276 133.032 440.043 134.764C440.81 136.496 441.207 138.369 441.209 140.264L441.199 140.273Z" fill="black"/>
<path d="M413.589 142.011C413.938 142.09 414.268 142.272 414.626 142.318C415.784 142.458 416.583 141.165 416.825 140.026C417.202 138.255 417.006 136.419 416.992 134.61C416.966 134.313 417.016 134.014 417.137 133.741C417.401 133.239 418.038 133.099 418.531 132.867C419.656 132.365 420.391 131.295 421.321 130.463C422.25 129.631 423.603 129.017 424.654 129.65C424.965 129.836 425.216 130.115 425.523 130.31C425.859 130.484 426.226 130.589 426.604 130.617C426.981 130.645 427.36 130.596 427.718 130.473C428.438 130.259 429.112 129.882 429.805 129.599C431.358 128.966 433.412 128.943 434.454 130.263C434.97 130.928 435.207 131.881 435.979 132.207C436.262 132.328 436.583 132.341 436.876 132.448C437.857 132.816 438.108 134.085 438.066 135.131C438.024 136.177 437.885 137.353 438.531 138.162C439.07 138.822 440.093 139.166 440.209 140.022C440.284 140.57 439.921 141.082 439.861 141.63C439.847 141.834 439.873 142.039 439.939 142.232C440.005 142.425 440.109 142.604 440.244 142.757C440.38 142.91 440.544 143.035 440.728 143.124C440.912 143.213 441.112 143.265 441.316 143.276C442.524 143.276 443.273 141.923 444.403 141.491C444.868 141.309 445.43 141.281 445.797 140.914C445.934 140.738 446.03 140.533 446.08 140.316C446.13 140.098 446.132 139.873 446.086 139.654C445.858 137.874 444.431 136.326 444.584 134.54C444.728 132.83 446.313 131.337 445.979 129.654C445.808 129.034 445.489 128.464 445.049 127.995C444.55 127.319 443.901 126.77 443.152 126.391C442.506 126.112 441.757 126.047 441.167 125.707C439.41 124.745 439.414 122.235 438.378 120.524C437.933 119.817 437.302 119.246 436.554 118.874C435.806 118.501 434.97 118.342 434.138 118.413C432.831 118.543 431.646 119.236 430.353 119.469C428.582 119.785 426.788 119.204 425.109 118.539C423.431 117.874 421.734 117.144 419.935 117.144C418.136 117.144 416.188 118.074 415.64 119.775C415.351 120.705 415.495 121.7 415.272 122.634C414.882 124.294 413.413 125.475 411.934 126.298C410.916 126.865 409.694 127.516 409.573 128.673C409.494 129.408 409.898 130.068 410.154 130.779C410.589 131.983 410.579 133.302 410.126 134.499C409.787 135.377 409.219 136.149 408.875 137.023C408.631 137.616 408.516 138.254 408.537 138.896C408.557 139.537 408.714 140.166 408.996 140.742C409.213 141.162 409.513 141.533 409.878 141.833C410.244 142.133 410.667 142.355 411.121 142.485C412.037 142.704 412.613 141.797 413.589 142.011Z" fill="#3F3D56"/>
<g opacity="0.1">
<path opacity="0.1" d="M416.825 139.013C416.583 140.152 415.779 141.444 414.621 141.305C414.263 141.258 413.938 141.077 413.585 140.998C412.613 140.784 412.037 141.695 411.121 141.463C410.666 141.332 410.243 141.111 409.876 140.811C409.51 140.511 409.209 140.14 408.992 139.72C408.748 139.246 408.601 138.73 408.559 138.199C408.467 139.022 408.617 139.855 408.992 140.594C409.209 141.014 409.51 141.385 409.876 141.685C410.243 141.985 410.666 142.206 411.121 142.337C412.051 142.551 412.613 141.64 413.585 141.872C413.925 141.99 414.271 142.091 414.621 142.174C415.779 142.318 416.583 141.026 416.825 139.887C417.016 138.881 417.091 137.856 417.048 136.833C417.044 137.565 416.969 138.295 416.825 139.013Z" fill="black"/>
<path opacity="0.1" d="M410.456 132.011C410.515 131.25 410.411 130.484 410.149 129.766C409.939 129.289 409.76 128.798 409.615 128.297C409.595 128.375 409.579 128.454 409.568 128.534C409.489 129.264 409.898 129.929 410.149 130.64C410.312 131.082 410.415 131.543 410.456 132.011Z" fill="black"/>
<path opacity="0.1" d="M445.974 129.562C445.756 130.882 444.686 132.123 444.579 133.513C444.554 133.751 444.554 133.991 444.579 134.229C444.812 132.607 446.248 131.17 445.974 129.562Z" fill="black"/>
<path opacity="0.1" d="M446.053 139.371C446.014 139.565 445.922 139.745 445.788 139.891C445.444 140.259 444.858 140.286 444.393 140.468C443.264 140.9 442.534 142.267 441.306 142.253C440.992 142.235 440.691 142.123 440.442 141.93C440.193 141.738 440.008 141.474 439.912 141.174C439.883 141.275 439.862 141.378 439.847 141.481C439.833 141.685 439.861 141.889 439.927 142.082C439.993 142.275 440.097 142.453 440.232 142.605C440.367 142.758 440.532 142.882 440.715 142.971C440.899 143.06 441.098 143.111 441.302 143.122C442.515 143.122 443.259 141.769 444.389 141.342C444.854 141.16 445.421 141.133 445.783 140.765C445.92 140.589 446.016 140.385 446.066 140.167C446.116 139.95 446.118 139.724 446.072 139.505C446.067 139.45 446.058 139.412 446.053 139.371Z" fill="black"/>
<path opacity="0.1" d="M440.223 138.985C440.107 138.139 439.084 137.795 438.545 137.125C438.214 136.686 438.035 136.151 438.034 135.601C437.996 136.465 438.01 137.349 438.545 137.999C439.08 138.65 439.893 138.929 440.153 139.599C440.219 139.401 440.243 139.192 440.223 138.985Z" fill="black"/>
<path opacity="0.1" d="M438.062 134.117C438.099 133.071 437.848 131.793 436.867 131.435C436.578 131.328 436.258 131.314 435.974 131.198C435.202 130.872 434.961 129.915 434.449 129.255C433.413 127.93 431.362 127.953 429.8 128.585C429.103 128.869 428.438 129.245 427.713 129.459C427.357 129.585 426.978 129.635 426.601 129.607C426.224 129.579 425.857 129.473 425.523 129.296C425.216 129.101 424.965 128.832 424.654 128.636C423.599 128.004 422.223 128.636 421.316 129.45C420.409 130.263 419.675 131.351 418.527 131.853C418.006 132.086 417.374 132.225 417.104 132.727C416.986 133.001 416.936 133.3 416.96 133.597C416.96 133.778 416.96 133.959 416.96 134.141C416.966 133.953 417.012 133.77 417.095 133.601C417.364 133.099 417.997 132.96 418.517 132.727C419.642 132.225 420.377 131.156 421.307 130.324C422.236 129.492 423.589 128.878 424.645 129.51C424.956 129.696 425.207 129.975 425.514 130.166C425.848 130.344 426.215 130.45 426.592 130.478C426.969 130.506 427.347 130.455 427.704 130.329C428.414 130.076 429.111 129.785 429.791 129.459C431.348 128.827 433.399 128.799 434.44 130.124C434.951 130.784 435.193 131.742 435.965 132.067C436.248 132.188 436.569 132.202 436.857 132.309C437.652 132.607 437.969 133.499 438.038 134.382L438.062 134.117Z" fill="black"/>
</g>
<g opacity="0.1">
<path opacity="0.1" d="M415.165 138.985C415.192 138.213 415.468 137.471 415.953 136.87C416.438 136.269 417.104 135.841 417.852 135.652C419.926 135.145 422.1 135.243 424.119 135.935C428.531 137.395 423.561 142.648 423.561 142.648C423.561 142.648 420.256 145.903 417.174 143.629C416.263 142.941 415.626 141.953 415.375 140.84C415.224 140.233 415.153 139.61 415.165 138.985Z" fill="black"/>
<path opacity="0.1" d="M439.419 138.985C439.392 138.213 439.115 137.47 438.63 136.869C438.144 136.268 437.476 135.841 436.727 135.652C434.656 135.146 432.482 135.245 430.465 135.936C426.053 137.395 431.023 142.649 431.023 142.649C431.023 142.649 434.324 145.903 437.411 143.63C438.321 142.941 438.958 141.953 439.21 140.84C439.361 140.234 439.431 139.61 439.419 138.985Z" fill="black"/>
<path opacity="0.1" d="M423.287 135.508V135.726H431.344V135.466L423.287 135.508Z" fill="black"/>
<path opacity="0.1" d="M425.858 137.837H426.114V137.098C426.114 137.098 426.932 136.461 428.289 137.098V137.758H428.754V137.325H428.526C428.526 137.325 428.619 136.428 427.104 136.572C427.104 136.572 425.886 136.456 425.914 137.228H425.635L425.858 137.837Z" fill="black"/>
</g>
<path d="M415.165 138.683C415.192 137.912 415.468 137.169 415.953 136.568C416.438 135.967 417.104 135.54 417.852 135.35C419.926 134.846 422.1 134.945 424.119 135.633C428.531 137.098 423.561 142.347 423.561 142.347C423.561 142.347 420.256 145.601 417.174 143.327C416.262 142.641 415.624 141.652 415.375 140.538C415.223 139.932 415.153 139.308 415.165 138.683Z" fill="#A60000"/>
<path d="M439.419 138.683C439.392 137.911 439.115 137.168 438.63 136.567C438.144 135.966 437.476 135.538 436.727 135.349C434.655 134.846 432.483 134.944 430.465 135.633C426.053 137.097 431.023 142.346 431.023 142.346C431.023 142.346 434.324 145.6 437.411 143.327C438.323 142.641 438.961 141.652 439.21 140.538C439.361 139.931 439.431 139.308 439.419 138.683Z" fill="#A60000"/>
<path d="M423.287 135.215V135.438H431.344V135.173L423.287 135.215Z" fill="#A60000"/>
<path d="M425.858 137.544H426.114V136.805C426.114 136.805 426.932 136.173 428.289 136.805V137.47H428.754V137.033H428.526C428.526 137.033 428.619 136.14 427.104 136.279C427.104 136.279 425.886 136.168 425.914 136.935H425.635L425.858 137.544Z" fill="#A60000"/>
<path d="M57.2472 212.545H54.6066V272.006H57.2472V212.545Z" fill="#535461"/>
<path d="M73.844 271.825L73.6766 274.502L73.4442 278.282L73.3465 279.858L73.1141 283.642L73.0118 285.218L72.7794 288.998L70.1155 331.987C70.0019 333.837 69.1869 335.574 67.8367 336.844C66.4865 338.113 64.7027 338.821 62.8492 338.821H49.0046C47.1516 338.82 45.3684 338.113 44.0189 336.843C42.6695 335.573 41.8555 333.836 41.743 331.987L39.0652 288.998L38.8327 285.218L38.7351 283.642L38.5073 279.849L38.4097 278.273L38.1772 274.493L38.0099 271.815C37.9781 271.301 38.052 270.786 38.2269 270.302C38.4018 269.818 38.6741 269.374 39.0269 268.999C39.3797 268.624 39.8056 268.326 40.2783 268.121C40.7511 267.917 41.2606 267.812 41.7755 267.813H70.083C70.5985 267.812 71.1087 267.917 71.5818 268.122C72.055 268.327 72.4811 268.627 72.8337 269.003C73.1863 269.379 73.4579 269.823 73.6317 270.309C73.8054 270.794 73.8777 271.31 73.844 271.825Z" fill="#3F3D56"/>
<path d="M73.6765 274.502L73.4441 278.282H38.4049L38.1725 274.502H73.6765Z" fill="#9D9CB5"/>
<path d="M73.3465 279.858L73.114 283.642H38.7397L38.5026 279.858H73.3465Z" fill="#9D9CB5"/>
<path d="M73.0118 285.218L72.7794 288.997H39.0745L38.8374 285.218H73.0118Z" fill="#9D9CB5"/>
<path d="M34.1418 234.833C49.5205 245.958 55.9268 263.363 55.9268 263.363C55.9268 263.363 37.3914 262.726 21.9895 251.601C6.58748 240.476 0.204468 223.071 0.204468 223.071C0.204468 223.071 18.7584 223.708 34.1418 234.833Z" fill="#A60000"/>
<path d="M0.227783 223.071C0.227783 223.071 19.4651 233.763 25.6343 242.596C31.8035 251.429 55.9269 263.368 55.9269 263.368" stroke="#535461" stroke-width="0.92979" stroke-miterlimit="10"/>
<path d="M44.0674 212.439C52.4355 218.482 55.9269 227.966 55.9269 227.966C55.9269 227.966 45.8387 227.622 37.4659 221.565C29.0931 215.507 25.6111 206.037 25.6111 206.037C25.6111 206.037 35.6993 206.358 44.0674 212.439Z" fill="#A60000"/>
<path d="M25.6111 206.014C25.6111 206.014 36.0805 211.825 39.4371 216.637C42.7936 221.448 55.9269 227.943 55.9269 227.943" stroke="#535461" stroke-width="0.92979" stroke-miterlimit="10"/>
<path d="M68.0933 227.464C58.4746 238.031 56.443 251.839 56.443 251.839C56.443 251.839 69.9993 248.515 79.6134 237.947C89.2274 227.38 91.2636 213.568 91.2636 213.568C91.2636 213.568 77.7073 216.892 68.0933 227.464Z" fill="#A60000"/>
<path d="M91.2636 213.568C91.2636 213.568 78.7394 224.4 75.5548 231.867C72.3703 239.333 56.443 251.857 56.443 251.857" stroke="#535461" stroke-width="0.92979" stroke-miterlimit="10"/>
</g>
<defs>
<linearGradient id="paint0_linear" x1="274.892" y1="300.359" x2="274.892" y2="50.0923" gradientUnits="userSpaceOnUse">
<stop stop-color="#808080" stop-opacity="0.25"/>
<stop offset="0.54" stop-color="#808080" stop-opacity="0.12"/>
<stop offset="1" stop-color="#808080" stop-opacity="0.1"/>
</linearGradient>
<linearGradient id="paint1_linear" x1="85556.3" y1="224745" x2="85556.3" y2="76148.8" gradientUnits="userSpaceOnUse">
<stop stop-color="#808080" stop-opacity="0.25"/>
<stop offset="0.54" stop-color="#808080" stop-opacity="0.12"/>
<stop offset="1" stop-color="#808080" stop-opacity="0.1"/>
</linearGradient>
<clipPath id="clip0">
<rect width="532.57" height="381.172" fill="white"/>
</clipPath>
</defs>
</svg>
