<svg width="10391" height="5522" viewBox="0 0 10391 5522" fill="none" xmlns="http://www.w3.org/2000/svg">
<path d="M10323.8 5507.73H4537.87C4520.04 5507.71 4502.95 5500.62 4490.34 5488.01C4477.73 5475.4 4470.64 5458.31 4470.62 5440.48V67.2492C4470.64 49.4207 4477.73 32.3292 4490.34 19.7226C4502.95 7.11594 4520.04 0.0233335 4537.87 0H10323.8C10341.6 0.0233335 10358.7 7.11594 10371.3 19.7226C10383.9 32.3292 10391 49.4207 10391 67.2492V5440.47C10391 5458.3 10383.9 5475.39 10371.3 5488C10358.7 5500.61 10341.6 5507.7 10323.8 5507.72V5507.73ZM4537.87 26.8467C4527.18 26.87 4516.94 31.1249 4509.39 38.6802C4501.83 46.2356 4497.58 56.4761 4497.55 67.1609V5440.47C4497.58 5451.16 4501.83 5461.4 4509.39 5468.95C4516.94 5476.51 4527.18 5480.76 4537.87 5480.79H10323.8C10334.4 5480.77 10344.7 5476.51 10352.2 5468.96C10359.8 5461.4 10364 5451.16 10364.1 5440.47V67.2492C10364 56.5643 10359.8 46.3238 10352.2 38.7685C10344.7 31.2131 10334.4 26.9583 10323.8 26.935L4537.87 26.8467Z" fill="#E6E6E6"/>
<path d="M7271.8 1396.25C7259.69 1396.25 7248.08 1401.06 7239.52 1409.63C7230.96 1418.19 7226.15 1429.8 7226.15 1441.91C7226.15 1454.02 7230.96 1465.63 7239.52 1474.19C7248.08 1482.76 7259.69 1487.57 7271.8 1487.57H9777.01C9789.12 1487.57 9800.73 1482.76 9809.29 1474.19C9817.85 1465.63 9822.66 1454.02 9822.66 1441.91C9822.66 1429.8 9817.85 1418.19 9809.29 1409.63C9800.73 1401.06 9789.12 1396.25 9777.01 1396.25H7271.8Z" fill="#E6E6E6"/>
<path d="M7271.8 1670.21C7259.69 1670.21 7248.08 1675.03 7239.52 1683.59C7230.96 1692.15 7226.15 1703.76 7226.15 1715.87C7226.15 1727.98 7230.96 1739.59 7239.52 1748.15C7248.08 1756.72 7259.69 1761.53 7271.8 1761.53H8550.76C8562.87 1761.53 8574.48 1756.72 8583.04 1748.15C8591.61 1739.59 8596.42 1727.98 8596.42 1715.87C8596.42 1703.76 8591.61 1692.15 8583.04 1683.59C8574.48 1675.03 8562.87 1670.21 8550.76 1670.21H7271.8Z" fill="#E6E6E6"/>
<path d="M5082.17 2996.22C5070.06 2996.22 5058.45 3001.04 5049.89 3009.6C5041.33 3018.16 5036.52 3029.77 5036.52 3041.88C5036.52 3053.99 5041.33 3065.6 5049.89 3074.16C5058.45 3082.73 5070.06 3087.54 5082.17 3087.54H9779.44C9791.55 3087.54 9803.17 3082.73 9811.73 3074.16C9820.29 3065.6 9825.1 3053.99 9825.1 3041.88C9825.1 3029.77 9820.29 3018.16 9811.73 3009.6C9803.17 3001.04 9791.55 2996.22 9779.44 2996.22H5082.17Z" fill="#E6E6E6"/>
<path d="M5082.17 3270.19C5070.06 3270.19 5058.45 3275 5049.89 3283.56C5041.33 3292.12 5036.52 3303.74 5036.52 3315.84C5036.52 3327.95 5041.33 3339.57 5049.89 3348.13C5058.45 3356.69 5070.06 3361.5 5082.17 3361.5H8553.2C8565.31 3361.5 8576.92 3356.69 8585.48 3348.13C8594.04 3339.57 8598.85 3327.95 8598.85 3315.84C8598.85 3303.74 8594.04 3292.12 8585.48 3283.56C8576.92 3275 8565.31 3270.19 8553.2 3270.19H5082.17Z" fill="#E6E6E6"/>
<path d="M5082.17 3537.95C5070.06 3537.95 5058.45 3542.76 5049.89 3551.32C5041.33 3559.88 5036.52 3571.49 5036.52 3583.6C5036.52 3595.71 5041.33 3607.32 5049.89 3615.89C5058.45 3624.45 5070.06 3629.26 5082.17 3629.26H9779.44C9791.55 3629.26 9803.17 3624.45 9811.73 3615.89C9820.29 3607.32 9825.1 3595.71 9825.1 3583.6C9825.1 3571.49 9820.29 3559.88 9811.73 3551.32C9803.17 3542.76 9791.55 3537.95 9779.44 3537.95H5082.17Z" fill="#E6E6E6"/>
<path d="M5082.17 3811.91C5070.06 3811.91 5058.45 3816.72 5049.89 3825.28C5041.33 3833.84 5036.52 3845.46 5036.52 3857.57C5036.52 3869.68 5041.33 3881.29 5049.89 3889.85C5058.45 3898.41 5070.06 3903.22 5082.17 3903.22H8553.2C8565.31 3903.22 8576.92 3898.41 8585.48 3889.85C8594.04 3881.29 8598.85 3869.68 8598.85 3857.57C8598.85 3845.46 8594.04 3833.84 8585.48 3825.28C8576.92 3816.72 8565.31 3811.91 8553.2 3811.91H5082.17Z" fill="#E6E6E6"/>
<path d="M6638.67 2358.18H3007.04C2989.22 2358.16 2972.12 2351.06 2959.51 2338.46C2946.91 2325.85 2939.82 2308.76 2939.8 2290.93V697.165C2939.82 679.336 2946.91 662.242 2959.51 649.635C2972.12 637.028 2989.22 629.936 3007.04 629.916H6638.67C6656.5 629.936 6673.59 637.028 6686.2 649.635C6698.81 662.242 6705.9 679.336 6705.92 697.165V2290.93C6705.9 2308.76 6698.81 2325.85 6686.2 2338.46C6673.59 2351.06 6656.5 2358.16 6638.67 2358.18Z" fill="#A60000"/>
<path d="M9750.4 4877.82H8373.83C8356 4877.8 8338.91 4870.71 8326.3 4858.1C8313.69 4845.49 8306.6 4828.4 8306.58 4810.57V4590.01C8306.6 4572.18 8313.69 4555.09 8326.3 4542.48C8338.91 4529.87 8356 4522.78 8373.83 4522.76H9750.4C9768.23 4522.78 9785.32 4529.87 9797.93 4542.48C9810.54 4555.09 9817.63 4572.18 9817.65 4590.01V4810.57C9817.63 4828.4 9810.54 4845.49 9797.93 4858.1C9785.32 4870.71 9768.23 4877.8 9750.4 4877.82Z" fill="#FCE303"/>
<path d="M1592.85 2697.39C1533.52 2653.11 1516.11 2570.35 1553.96 2512.55C1557.72 2506.89 1561.97 2501.57 1566.67 2496.66L1570.46 1319.24L1745.48 1351.91L1753.17 2509.94C1793.04 2556.19 1801.09 2623.6 1768.79 2672.92C1730.95 2730.72 1652.17 2741.68 1592.85 2697.39Z" fill="#FFB8B8"/>
<path d="M2503.03 5332.83L2683.46 5332.82L2769.3 4636.87L2503 4636.88L2503.03 5332.83Z" fill="#FFB8B8"/>
<path d="M2457 5273.92L2812.34 5273.91H2812.35C2872.41 5273.91 2930 5297.77 2972.47 5340.24C3014.94 5382.7 3038.8 5440.3 3038.8 5500.36V5507.71L2457.01 5507.74L2457 5273.92Z" fill="#2F2E41"/>
<path d="M825.249 5332.83L1005.69 5332.82L1091.52 4636.87L825.224 4636.88L825.249 5332.83Z" fill="#FFB8B8"/>
<path d="M779.23 5273.92L1134.57 5273.91H1134.58C1194.64 5273.91 1252.23 5297.77 1294.7 5340.24C1337.16 5382.7 1361.02 5440.3 1361.03 5500.36V5507.71L779.241 5507.74L779.23 5273.92Z" fill="#2F2E41"/>
<path d="M2492.49 5138.45L2477.37 5047.71C2461.84 5042.28 2448.64 5031.68 2439.97 5017.69C2423.73 4992.04 2421.15 4955.93 2432.28 4910.35L2310.54 3882.24L1674.95 3222.8L1267.21 4206.27L1105.8 4984.52V5096.97L783.537 5138.35L798.202 5032.36C785.874 5027.08 775.602 5017.93 768.94 5006.29C750.424 4975.47 750.678 4927.7 769.69 4864.33L770.514 4861.58L769.462 4852.12C768.724 4845.48 773.57 4209.8 962.541 3894.84L1151.8 2938.61C1146.88 2925.14 1122.62 2846.74 1167.12 2714.25C1211.04 2583.5 1333.86 2372.86 1669.61 2111.91L1670.77 2111.01L1672.2 2110.71C1675.91 2109.94 2046.22 2036.32 2237.74 2286.77L2239.03 2288.46V2290.59C2239.03 2306.08 2238.7 2666.4 2210.21 2746.35L2664.66 3581.97C2673.51 3591.34 2752.96 3683.09 2724.74 3924.31L2798.15 4746.57C2806.55 4762.61 2882.54 4913.63 2798.79 4973.42L2813.8 5077.24L2492.49 5138.45Z" fill="#A60000"/>
<path d="M1732.25 1683.12C1646.92 1683.12 1533.52 1652.96 1464.11 1513.94L1462.74 1511.21L1633.75 1148.71C1655.91 1101.75 1695.56 1065.32 1744.23 1047.22C1792.9 1029.12 1846.72 1030.79 1894.18 1051.87C1941.64 1072.95 1978.96 1111.76 1998.16 1160.01C2017.37 1208.25 2016.92 1262.1 1996.93 1310.03L1849.09 1664.45L1846.51 1665.41C1809.59 1677.27 1771.03 1683.24 1732.25 1683.12Z" fill="#FCE303"/>
<path d="M2205.95 2401.83L1666.85 2147.25L1740.95 1243.18L1876.05 1078.07L1902.22 1072.46C2022.49 1046.71 2147.47 1053.63 2264.16 1092.51L2266.73 1093.37L2488.64 1566.76C2490.03 1569.13 2650.06 1851.67 2428.83 2000.63L2205.95 2401.83Z" fill="#FCE303"/>
<path d="M2947.08 2113.71C2940.64 2116.39 2934.43 2119.57 2928.5 2123.23L2360.42 1863.37L2345.85 1712.31L2115 1704.51L2114.81 1974.44C2114.8 1996.25 2121.85 2017.47 2134.93 2034.92C2148 2052.38 2166.38 2065.12 2187.31 2071.23L2869.48 2270.6C2876.48 2296.52 2891.22 2319.7 2911.71 2337.04C2932.21 2354.38 2957.51 2365.08 2984.23 2367.69C3010.95 2370.31 3037.84 2364.73 3061.31 2351.7C3084.79 2338.66 3103.74 2318.79 3115.64 2294.72C3127.54 2270.65 3131.84 2243.53 3127.95 2216.96C3124.07 2190.39 3112.18 2165.64 3093.89 2145.99C3075.59 2126.34 3051.74 2112.72 3025.52 2106.96C2999.29 2101.19 2971.93 2103.55 2947.08 2113.71L2947.08 2113.71Z" fill="#FFB8B8"/>
<path d="M2252.23 1776.78C2187.49 1776.78 2114.44 1754.39 2044.32 1684.27L2042.16 1682.11L2089.54 1284.11C2095.67 1232.55 2121.75 1185.43 2162.18 1152.85C2202.62 1120.27 2254.19 1104.8 2305.89 1109.76C2357.58 1114.72 2405.27 1139.72 2438.77 1179.4C2472.26 1219.08 2488.9 1270.29 2485.12 1322.09L2457.15 1705.09L2455.01 1706.8C2453.63 1707.91 2365.74 1776.78 2252.23 1776.78Z" fill="#FCE303"/>
<path d="M2425.45 763.13C2521.21 587.957 2456.83 368.324 2281.66 272.566C2106.49 176.808 1886.86 241.187 1791.1 416.359C1695.34 591.532 1759.72 811.164 1934.89 906.922C2110.06 1002.68 2329.69 938.302 2425.45 763.13Z" fill="#FFB8B8"/>
<path d="M2476.16 398.216C2458.22 293.891 2374.48 207.408 2274.71 172.022C2174.94 136.637 2062.44 148.144 1964.74 188.893C1948.48 195.71 1932.57 203.359 1917.08 211.809C1881.37 143.744 1793.83 104.266 1713.75 108.527C1617.02 113.674 1529.66 164.86 1445.64 213.101C1361.62 261.341 1271.47 309.338 1174.61 307.092C999.589 303.034 869.375 140.764 701.073 92.5397C626.151 71.0727 546.43 73.2442 472.788 98.758C399.145 124.272 335.168 171.885 289.585 235.102C244.001 298.319 219.032 374.06 218.083 451.992C217.135 529.923 240.253 606.25 284.284 670.558C356.095 541.865 524.736 498.399 671.066 515.918C817.39 533.438 953.766 597.579 1097.12 631.744C1240.48 665.91 1406.5 664.444 1517.54 567.554C1580.53 512.596 1617.52 434.044 1672.35 370.95C1709.44 328.274 1762.25 292.239 1816.2 283.757C1763.06 331.616 1722.48 391.797 1698.05 459.011C1654.79 581.93 1677.92 729.518 1767.67 823.996C1863.88 925.287 2014.89 952.281 2154.58 950.643L2157.51 947.673C2114.73 883.652 2080.98 794.879 2128.07 733.966C2174.56 673.838 2266.24 682.697 2337.43 656.09C2436.58 619.032 2494.09 502.541 2476.16 398.216Z" fill="#2F2E41"/>
<path d="M3451.88 5522H12.5981C9.25687 5522 6.05248 5520.67 3.68988 5518.31C1.32729 5515.95 0 5512.74 0 5509.4C0 5506.06 1.32729 5502.86 3.68988 5500.49C6.05248 5498.13 9.25687 5496.8 12.5981 5496.8H3451.88C3455.22 5496.8 3458.42 5498.13 3460.78 5500.49C3463.15 5502.86 3464.47 5506.06 3464.47 5509.4C3464.47 5512.74 3463.15 5515.95 3460.78 5518.31C3458.42 5520.67 3455.22 5522 3451.88 5522Z" fill="#CCCCCC"/>
<path d="M4659.9 1195.89C4644.13 1195.94 4631.37 1216.43 4631.4 1241.64C4631.43 1266.79 4644.18 1287.16 4659.9 1287.21H6006.26C6022.03 1287.16 6034.79 1266.67 6034.76 1241.46C6034.72 1216.32 6021.98 1195.94 6006.26 1195.89H4659.9Z" fill="white"/>
<path d="M4659.9 1453.46C4644.13 1453.51 4631.37 1473.99 4631.4 1499.2C4631.43 1524.35 4644.18 1544.72 4659.9 1544.77H6006.26C6022.03 1544.72 6034.79 1524.24 6034.76 1499.02C6034.72 1473.88 6021.98 1453.51 6006.26 1453.46H4659.9Z" fill="white"/>
<path d="M4659.9 1714.82C4644.13 1714.87 4631.37 1735.35 4631.4 1760.57C4631.43 1785.71 4644.18 1806.08 4659.9 1806.13H5239.24C5255.01 1806.08 5267.77 1785.6 5267.74 1760.39C5267.71 1735.24 5254.97 1714.87 5239.24 1714.82H4659.9Z" fill="white"/>
<path d="M3976.3 1859.39C4178.08 1859.39 4341.65 1695.82 4341.65 1494.04C4341.65 1292.27 4178.08 1128.7 3976.3 1128.7C3774.53 1128.7 3610.96 1292.27 3610.96 1494.04C3610.96 1695.82 3774.53 1859.39 3976.3 1859.39Z" fill="white"/>
</svg>
