<svg width="533" height="382" viewBox="0 0 533 382" fill="none" xmlns="http://www.w3.org/2000/svg">
<g clip-path="url(#clip0)">
<path d="M532.57 178.958C532.571 194.123 527.379 208.729 518.031 219.857C508.684 230.985 495.871 237.815 482.153 238.981C481.69 239.02 481.221 239.058 480.752 239.081V181.945C480.753 181.374 480.637 180.81 480.414 180.294C480.191 179.779 479.867 179.325 479.464 178.966C479.417 178.913 479.366 178.866 479.31 178.827C479.259 178.781 479.205 178.74 479.149 178.703C478.657 178.354 478.093 178.147 477.51 178.099C476.926 178.052 476.341 178.167 475.808 178.433L475.227 177.028C475.863 176.709 476.553 176.544 477.251 176.542L437.365 138.67C437.673 138.284 437.996 137.906 438.318 137.528C445.837 128.791 455.561 122.741 466.232 120.158C476.904 117.576 488.033 118.58 498.181 123.041C508.329 127.501 517.031 135.214 523.161 145.182C529.292 155.15 532.569 166.916 532.57 178.958Z" fill="#F2F2F2"/>
<path d="M13.8492 220.007C13.6508 218.89 13.6771 217.738 13.9261 216.634C14.1751 215.529 14.6408 214.498 15.2905 213.613C15.9401 212.729 16.7578 212.012 17.686 211.513C18.6142 211.014 19.6304 210.746 20.6628 210.727L52.1471 169.417L60.0073 180.494L27.9204 218.94C27.8345 220.854 27.1146 222.666 25.8971 224.034C24.6797 225.402 23.0492 226.23 21.3148 226.362C19.5803 226.493 17.8623 225.919 16.4864 224.748C15.1105 223.576 14.1721 221.889 13.8492 220.007H13.8492Z" fill="#FFB8B8"/>
<path d="M163.357 169.162C163.136 169.513 162.942 169.883 162.774 170.268L128.396 175.685L123.176 168.38L112.144 175.622L122.514 193.443L164.441 179.82C165.548 180.924 166.933 181.631 168.412 181.846C169.892 182.061 171.396 181.774 172.724 181.024C174.052 180.274 175.142 179.097 175.848 177.647C176.554 176.198 176.844 174.547 176.677 172.912C176.511 171.277 175.897 169.737 174.917 168.496C173.937 167.255 172.638 166.373 171.192 165.966C169.746 165.559 168.222 165.647 166.822 166.218C165.423 166.788 164.214 167.816 163.357 169.162Z" fill="#FFB8B8"/>
<path d="M104.634 307.184L110.718 313.86L136.977 291.175L127.998 281.322L104.634 307.184Z" fill="#FFB8B8"/>
<path d="M116.825 332.962L97.7061 311.98L105.061 303.838L116.794 316.714C117.764 317.778 118.534 319.043 119.061 320.436C119.587 321.828 119.86 323.322 119.863 324.831C119.866 326.34 119.599 327.834 119.078 329.23C118.557 330.625 117.791 331.893 116.825 332.962L116.825 332.962Z" fill="#2F2E41"/>
<path d="M72.2971 371.221H80.882L84.9658 334.724H72.2957L72.2971 371.221Z" fill="#FFB8B8"/>
<path d="M97.4382 380.006L70.4575 380.007L70.457 368.518L87.0134 368.517C88.3823 368.517 89.7379 368.814 91.0027 369.391C92.2674 369.968 93.4166 370.815 94.3847 371.882C95.3527 372.948 96.1206 374.215 96.6446 375.609C97.1685 377.003 97.4382 378.497 97.4382 380.006Z" fill="#2F2E41"/>
<path d="M70.4307 343.033L60.6523 263.547C59.1219 251.535 59.5968 239.316 62.0536 227.492C64.0602 217.989 66.7711 211.407 70.1111 207.929C70.6382 207.384 71.3129 207.044 72.0319 206.962L104.317 203.255C104.939 203.185 105.567 203.311 106.126 203.619C106.685 203.927 107.153 204.404 107.476 204.995L108.537 206.944C108.666 207.181 108.77 207.433 108.847 207.695L115.673 231.019C115.775 231.372 115.939 231.698 116.156 231.98C116.374 232.262 116.64 232.493 116.939 232.66C127.686 238.708 162.597 259.124 160.599 267.932C158.722 276.208 141.147 289.627 135.805 293.542C135.261 293.943 134.621 294.154 133.966 294.149C133.312 294.144 132.674 293.921 132.136 293.511L123.269 286.825C122.836 286.498 122.48 286.062 122.231 285.553C121.983 285.044 121.848 284.477 121.839 283.899C121.83 283.321 121.946 282.748 122.179 282.23C122.411 281.712 122.753 281.262 123.175 280.919L129.29 275.953C129.664 275.649 129.956 275.239 130.134 274.765C130.312 274.292 130.37 273.774 130.301 273.267C130.232 272.761 130.039 272.284 129.743 271.889C129.447 271.494 129.059 271.196 128.62 271.026L95.7797 258.326C95.411 258.183 95.0175 258.136 94.6294 258.187C94.2414 258.238 93.8692 258.387 93.5415 258.621C93.2137 258.856 92.9391 259.17 92.7388 259.54C92.5385 259.91 92.4178 260.325 92.386 260.755L86.3309 342.325C86.2641 343.199 85.9121 344.018 85.3402 344.628C84.7682 345.239 84.015 345.601 83.2198 345.646L73.851 346.163C73.7939 346.166 73.7374 346.167 73.6809 346.167C72.8858 346.171 72.1168 345.854 71.5184 345.277C70.92 344.7 70.5332 343.902 70.4307 343.033Z" fill="#2F2E41"/>
<path d="M85.2377 137.446C94.7362 137.446 102.436 128.959 102.436 118.49C102.436 108.021 94.7362 99.5337 85.2377 99.5337C75.7391 99.5337 68.0391 108.021 68.0391 118.49C68.0391 128.959 75.7391 137.446 85.2377 137.446Z" fill="#FFB8B8"/>
<path d="M69.1513 204.682L56.4916 153.77L56.7084 153.609C56.9803 153.407 84.2674 133.547 116.215 149.551L116.794 149.918L109.293 202.761C109.129 203.967 108.589 205.072 107.765 205.886C106.941 206.699 105.886 207.171 104.78 207.219L73.9116 208.528C73.8493 208.53 73.7873 208.532 73.7256 208.532C72.685 208.534 71.6727 208.158 70.8457 207.462C70.0186 206.766 69.4231 205.789 69.1513 204.682Z" fill="#CCCCCC"/>
<path d="M56.0098 186.914L45.4661 173.55C44.9583 172.908 44.6723 172.089 44.6587 171.238C44.6451 170.386 44.9046 169.556 45.3916 168.895L56.4138 153.887L64.8751 156.431L69.361 173.736L61.1817 186.615C60.8964 187.067 60.5209 187.441 60.084 187.708C59.6471 187.975 59.1605 188.128 58.6616 188.155C58.6026 188.158 58.544 188.16 58.4853 188.16C58.0157 188.161 57.5514 188.05 57.1242 187.835C56.697 187.62 56.3168 187.306 56.0098 186.914Z" fill="#CCCCCC"/>
<path d="M114.315 184.131C113.816 184.103 113.33 183.95 112.893 183.683C112.456 183.416 112.081 183.043 111.795 182.591L103.616 169.712L107.55 151.495L115.341 149.153L116.794 149.918L127.585 164.87C128.072 165.532 128.332 166.362 128.318 167.213C128.305 168.065 128.019 168.884 127.511 169.526L116.967 182.89C116.66 183.282 116.28 183.596 115.853 183.811C115.425 184.026 114.961 184.136 114.492 184.135C114.433 184.135 114.374 184.134 114.315 184.131Z" fill="#CCCCCC"/>
<path d="M480.752 178.163C480.759 178.355 480.699 178.543 480.584 178.688C480.463 178.843 480.292 178.939 480.106 178.955C479.921 178.971 479.738 178.906 479.597 178.773L477.251 176.542L437.365 138.67L325.495 32.4312C324.857 31.8291 324.044 31.4988 323.204 31.5002C322.364 31.5016 321.552 31.8346 320.916 32.4389L170.266 176.696L168.907 177.993C168.855 178.044 168.796 178.086 168.732 178.117C168.62 178.171 168.497 178.193 168.375 178.178C168.2 178.158 168.038 178.067 167.92 177.924C167.859 177.848 167.813 177.759 167.783 177.663C167.753 177.568 167.741 177.466 167.747 177.365C167.752 177.264 167.776 177.165 167.817 177.074C167.857 176.983 167.914 176.902 167.983 176.835L168.172 176.65L319.998 31.2735C320.89 30.4289 322.027 29.9633 323.203 29.9605C324.379 29.9576 325.517 30.4178 326.412 31.2581L438.318 137.527L480.507 177.599C480.581 177.67 480.641 177.756 480.683 177.853C480.725 177.95 480.749 178.055 480.752 178.163Z" fill="#3F3D56"/>
<path d="M395.694 200.954L393.852 195.366L387.508 176.071L373.839 134.525L358.56 88.0857L331.006 4.32206C330.465 2.6886 329.358 1.35803 327.929 0.62172C326.5 -0.114587 324.864 -0.196616 323.38 0.393593L164.069 64.0595C162.586 64.6552 161.379 65.8745 160.71 67.4501C160.042 69.0256 159.968 70.8288 160.505 72.4645L199.571 191.214L200.236 193.244L241.242 213.727L252.768 219.485L254.638 220.419L303.438 244.8L305.328 244.044L337.336 231.255L385.618 211.96L392.123 209.359C393.606 208.764 394.815 207.545 395.484 205.97C396.153 204.394 396.229 202.591 395.694 200.954Z" fill="#E6E6E6"/>
<path d="M328.891 102.04C328.096 99.6359 326.469 97.6774 324.366 96.5937C322.263 95.51 319.857 95.3897 317.673 96.2591L254.638 121.458L224.198 133.622C223.117 134.053 222.123 134.715 221.273 135.569C220.424 136.424 219.736 137.454 219.248 138.602C218.76 139.75 218.482 140.993 218.43 142.259C218.378 143.525 218.553 144.79 218.945 145.982C219.337 147.174 219.939 148.268 220.715 149.204C221.491 150.139 222.427 150.897 223.469 151.433C224.51 151.97 225.638 152.275 226.787 152.331C227.936 152.387 229.084 152.193 230.164 151.759L254.638 141.981L323.647 114.404C325.828 113.528 327.605 111.735 328.588 109.417C329.571 107.099 329.68 104.446 328.891 102.04Z" fill="white"/>
<path d="M339.99 135.784C339.195 133.38 337.568 131.421 335.465 130.337C333.362 129.254 330.955 129.133 328.772 130.003L318.093 134.271L254.638 159.632L235.297 167.358C233.116 168.232 231.339 170.024 230.356 172.341C229.374 174.658 229.266 177.311 230.057 179.715C230.847 182.12 232.472 184.08 234.573 185.166C236.674 186.251 239.081 186.372 241.263 185.503L254.638 180.154L334.745 148.14C334.927 148.071 335.102 147.986 335.277 147.901C337.311 146.917 338.93 145.118 339.805 142.868C340.68 140.618 340.746 138.085 339.99 135.784Z" fill="white"/>
<path d="M351.208 169.882C350.415 167.478 348.789 165.519 346.687 164.436C344.585 163.352 342.179 163.231 339.997 164.101L310.048 176.071L286.863 185.341L254.638 198.214L246.515 201.464C244.638 202.217 243.05 203.655 242.015 205.538C240.98 207.422 240.559 209.638 240.822 211.821C240.902 212.471 241.043 213.11 241.242 213.728L252.768 219.485L254.638 218.737H254.652L313.129 195.366L345.963 182.246C348.145 181.372 349.924 179.578 350.907 177.26C351.89 174.942 351.999 172.288 351.208 169.882H351.208Z" fill="white"/>
<path d="M285.574 68.868C284.78 66.464 283.152 64.5055 281.05 63.4218C278.947 62.3382 276.54 62.2178 274.356 63.0872L238.154 77.5508C235.973 78.4245 234.196 80.2168 233.213 82.5339C232.23 84.8511 232.123 87.5034 232.913 89.9081C233.704 92.3129 235.328 94.2732 237.43 95.3585C239.531 96.4437 241.937 96.5651 244.12 95.6958L255.576 91.1191L263.159 88.0859L280.33 81.2246C282.51 80.3504 284.287 78.5583 285.271 76.2418C286.254 73.9252 286.363 71.2733 285.574 68.868Z" fill="white"/>
<path d="M430.048 88.0859H260.59C259.59 88.087 258.607 88.3655 257.731 88.8955C256.855 89.4256 256.114 90.1903 255.576 91.1191C254.962 92.1707 254.636 93.3955 254.638 94.6463V220.419L303.438 244.8L310.314 248.235L321.174 253.661C321.81 253.977 322.5 254.141 323.198 254.141C323.896 254.141 324.586 253.977 325.222 253.661L336.083 248.235L370.072 231.255L401.751 215.426L436 198.322V94.6463C435.999 92.9067 435.371 91.2387 434.255 90.0086C433.139 88.7786 431.626 88.087 430.048 88.0859Z" fill="#A60000"/>
<path d="M395.036 176.071H295.602C293.341 176.073 291.168 177.039 289.539 178.767C287.91 180.495 286.951 182.851 286.863 185.341C286.851 185.466 286.846 185.593 286.849 185.719C286.852 188.276 287.775 190.728 289.416 192.537C291.057 194.345 293.281 195.363 295.602 195.366H395.036C397.357 195.366 399.584 194.35 401.225 192.541C402.867 190.731 403.789 188.278 403.789 185.719C403.789 183.16 402.867 180.706 401.225 178.897C399.584 177.088 397.357 176.071 395.036 176.071Z" fill="white"/>
<path d="M400.701 214.26C399.123 212.772 397.113 211.956 395.036 211.96H295.602C293.28 211.96 291.054 212.977 289.412 214.786C287.771 216.595 286.849 219.049 286.849 221.608C286.849 224.167 287.771 226.621 289.412 228.43C291.054 230.239 293.28 231.256 295.602 231.256H370.072L401.751 215.426C401.432 215.005 401.08 214.616 400.701 214.26Z" fill="white"/>
<path d="M310.314 248.235L321.174 253.661C321.81 253.977 322.5 254.141 323.198 254.141C323.896 254.141 324.586 253.977 325.222 253.661L336.083 248.235H310.314Z" fill="white"/>
<path d="M372.796 134.942C372.18 133.085 371.061 131.481 369.591 130.348C368.12 129.214 366.369 128.606 364.575 128.605H326.062C324.381 128.607 322.735 129.142 321.322 130.147C319.909 131.151 318.788 132.583 318.093 134.27C317.575 135.52 317.307 136.879 317.309 138.253C317.312 140.811 318.236 143.262 319.876 145.071C321.517 146.879 323.742 147.897 326.062 147.901H364.575C365.983 147.901 367.371 147.526 368.62 146.809C369.868 146.092 370.942 145.054 371.749 143.782C372.556 142.51 373.072 141.042 373.255 139.503C373.437 137.964 373.28 136.4 372.796 134.942Z" fill="white"/>
<path d="M366.676 231.255L332.686 248.235L324.641 252.256C324.187 252.481 323.696 252.597 323.198 252.597C322.701 252.597 322.209 252.481 321.756 252.256L313.71 248.235H310.314L321.174 253.66C321.81 253.977 322.5 254.141 323.198 254.141C323.896 254.141 324.586 253.977 325.222 253.66L336.083 248.235L370.072 231.255H366.676ZM366.676 231.255L332.686 248.235L324.641 252.256C324.187 252.481 323.696 252.597 323.198 252.597C322.701 252.597 322.209 252.481 321.756 252.256L313.71 248.235H310.314L321.174 253.66C321.81 253.977 322.5 254.141 323.198 254.141C323.896 254.141 324.586 253.977 325.222 253.66L336.083 248.235L370.072 231.255H366.676ZM366.676 231.255L332.686 248.235L324.641 252.256C324.187 252.481 323.696 252.597 323.198 252.597C322.701 252.597 322.209 252.481 321.756 252.256L313.71 248.235H310.314L321.174 253.66C321.81 253.977 322.5 254.141 323.198 254.141C323.896 254.141 324.586 253.977 325.222 253.66L336.083 248.235L370.072 231.255H366.676ZM480.752 178.163C480.494 177.88 480.21 177.626 479.905 177.406C479.217 176.915 478.428 176.623 477.61 176.556C476.792 176.49 475.973 176.653 475.227 177.028L400.701 214.26L366.676 231.255L332.686 248.235L324.641 252.256C324.187 252.481 323.696 252.597 323.198 252.597C322.701 252.597 322.209 252.481 321.756 252.256L313.71 248.235L305.328 244.044L254.652 218.736L254.638 218.729L240.822 211.821L199.571 191.214L171.169 177.028C170.88 176.881 170.577 176.77 170.266 176.696C169.58 176.508 168.864 176.492 168.172 176.65C167.065 176.9 166.069 177.563 165.354 178.527C164.638 179.492 164.246 180.699 164.244 181.945V375.767C164.245 377.2 164.762 378.573 165.681 379.586C166.6 380.599 167.846 381.168 169.145 381.17H477.251C478.551 381.168 479.797 380.599 480.715 379.586C481.634 378.573 482.151 377.2 482.153 375.767V181.945C482.155 180.53 481.652 179.172 480.752 178.163V178.163ZM480.752 375.767C480.752 376.791 480.383 377.772 479.726 378.496C479.07 379.219 478.179 379.626 477.251 379.626H169.145C168.217 379.626 167.327 379.219 166.67 378.496C166.014 377.772 165.645 376.791 165.644 375.767V181.945C165.645 181.3 165.791 180.665 166.072 180.099C166.352 179.533 166.756 179.053 167.248 178.703C167.594 178.459 167.975 178.281 168.375 178.178C168.493 178.15 168.612 178.13 168.732 178.117C168.869 178.095 169.007 178.084 169.145 178.086C169.643 178.086 170.135 178.205 170.588 178.433L200.236 193.244L241.242 213.727L252.768 219.485L254.638 220.419L303.438 244.8L310.314 248.235L321.174 253.66C321.81 253.977 322.5 254.141 323.198 254.141C323.896 254.141 324.586 253.977 325.222 253.66L336.083 248.235L370.072 231.255L401.751 215.425L475.808 178.433C476.341 178.167 476.926 178.052 477.51 178.099C478.093 178.147 478.657 178.354 479.149 178.703C479.205 178.74 479.259 178.781 479.31 178.827C479.366 178.866 479.417 178.913 479.464 178.965C479.867 179.325 480.191 179.779 480.414 180.294C480.637 180.81 480.753 181.374 480.752 181.945L480.752 375.767ZM366.676 231.255L332.686 248.235L324.641 252.256C324.187 252.481 323.696 252.597 323.198 252.597C322.701 252.597 322.209 252.481 321.756 252.256L313.71 248.235H310.314L321.174 253.66C321.81 253.977 322.5 254.141 323.198 254.141C323.896 254.141 324.586 253.977 325.222 253.66L336.083 248.235L370.072 231.255H366.676ZM366.676 231.255L332.686 248.235L324.641 252.256C324.187 252.481 323.696 252.597 323.198 252.597C322.701 252.597 322.209 252.481 321.756 252.256L313.71 248.235H310.314L321.174 253.66C321.81 253.977 322.5 254.141 323.198 254.141C323.896 254.141 324.586 253.977 325.222 253.66L336.083 248.235L370.072 231.255H366.676ZM252.768 219.485L254.638 220.419V218.736L252.768 219.485ZM366.676 231.255L332.686 248.235L324.641 252.256C324.187 252.481 323.696 252.597 323.198 252.597C322.701 252.597 322.209 252.481 321.756 252.256L313.71 248.235H310.314L321.174 253.66C321.81 253.977 322.5 254.141 323.198 254.141C323.896 254.141 324.586 253.977 325.222 253.66L336.083 248.235L370.072 231.255H366.676Z" fill="#3F3D56"/>
<path d="M122.91 381.17H43.7832C43.5975 381.17 43.4194 381.088 43.2881 380.944C43.1568 380.799 43.083 380.602 43.083 380.398C43.083 380.193 43.1568 379.997 43.2881 379.852C43.4194 379.707 43.5975 379.626 43.7832 379.626H122.91C123.096 379.626 123.274 379.707 123.405 379.852C123.537 379.997 123.611 380.193 123.611 380.398C123.611 380.602 123.537 380.799 123.405 380.944C123.274 381.088 123.096 381.17 122.91 381.17Z" fill="#3F3D56"/>
<path d="M78.6984 132.353C77.4066 131.63 76.3324 130.511 75.6059 129.129C74.8795 127.748 74.5319 126.164 74.6052 124.569C74.6786 122.975 75.1697 121.438 76.0191 120.144C76.8686 118.851 78.04 117.856 79.3915 117.282C84.5813 115.074 90.3994 119.579 95.8396 118.298C101.262 117.022 104.398 109.877 103.104 103.935C101.81 97.9923 97.0993 93.5165 91.9051 91.3789C88.5127 89.9864 84.8796 89.4525 81.2746 89.8167C77.6697 90.1809 74.1853 91.4339 71.0791 93.483C68.0049 95.5921 65.4447 98.4969 63.6209 101.945C61.7971 105.393 60.765 109.279 60.6143 113.267C60.5436 117.258 61.4284 121.2 63.1793 124.694C64.9303 128.189 67.4857 131.113 70.5882 133.172C71.9709 134.051 73.5803 134.756 75.1353 134.361C76.412 133.904 77.6147 133.226 78.6984 132.353Z" fill="#2F2E41"/>
<path d="M73.1249 93.0208C68.5486 86.3305 62.3709 80.8343 55.1823 78.1094C47.9937 75.3844 39.779 75.6032 33.0276 79.454C26.2762 83.3049 21.2413 90.9529 20.7158 99.3115C19.8411 113.223 30.6259 125.048 31.7327 138.94C32.0835 143.343 31.4351 147.773 29.8459 151.831C28.2566 155.889 25.7765 159.448 22.6288 162.187C19.4812 164.925 15.7648 166.758 11.8146 167.52C7.86434 168.281 3.80425 167.948 0 166.55C2.70961 169.008 5.85118 170.822 9.22736 171.878C12.6036 172.934 16.1414 173.209 19.6187 172.686C23.0903 172.112 26.4024 170.693 29.3149 168.533C32.2274 166.373 34.6672 163.526 36.4575 160.198C38.8847 155.549 39.8814 150.15 40.2686 144.804C40.8766 136.351 40.0532 127.847 37.8403 119.726C36.6306 115.295 34.9901 110.735 35.7572 106.185C36.1945 103.819 37.2529 101.647 38.801 99.9377C40.3492 98.2289 42.3187 97.0591 44.465 96.5737C47.9335 95.8573 51.4798 97.0241 54.7917 98.3669C58.1036 99.7097 61.4428 101.264 64.9707 101.353C68.4986 101.441 72.3413 99.6615 73.7047 96.074L73.1249 93.0208Z" fill="#2F2E41"/>
</g>
<defs>
<clipPath id="clip0">
<rect width="532.57" height="381.17" fill="white"/>
</clipPath>
</defs>
</svg>
